<svg id="Icons" height="512" viewBox="0 0 74 74" width="512" xmlns="http://www.w3.org/2000/svg"><path d="m63.24 36.59a1 1 0 0 1 -1-1v-6.24a1 1 0 1 1 2 0v6.24a1 1 0 0 1 -1 1z"/><path d="m63.24 57.58h-42.24a1 1 0 0 1 -1-1v-53.58a1 1 0 0 1 1-1h42.24a1 1 0 0 1 1 1v21.35a1 1 0 1 1 -2 0v-20.35h-40.24v51.58h40.24v-3.76a1 1 0 1 1 2 0v4.76a1 1 0 0 1 -1 1z"/><path d="m63.24 47.82a1 1 0 0 1 -1-1v-6.23a1 1 0 0 1 2 0v6.23a1 1 0 0 1 -1 1z"/><path d="m11.76 64.79a1 1 0 0 1 -1-1v-53.79a8.009 8.009 0 0 1 8-8h2.24a1 1 0 0 1 0 2h-2.24a6.006 6.006 0 0 0 -6 6v53.79a1 1 0 0 1 -1 1z"/><path d="m63.24 72h-44.27a8.21 8.21 0 1 1 0-16.42h44.27a1 1 0 0 1 1 1v14.42a1 1 0 0 1 -1 1zm-44.27-14.42a6.21 6.21 0 1 0 0 12.42h43.27v-12.42z"/><path d="m50.87 18h-17.5a1 1 0 0 1 0-2h17.5a1 1 0 1 1 0 2z"/><path d="m54.87 24h-25.5a1 1 0 0 1 0-2h25.5a1 1 0 1 1 0 2z"/></svg>