<svg id="Icons" height="512" viewBox="0 0 74 74" width="512" xmlns="http://www.w3.org/2000/svg"><path d="m71 41.34a1 1 0 0 1 -1-1v-6.23a1 1 0 0 1 2 0v6.23a1 1 0 0 1 -1 1z"/><path d="m71 64.36h-68a1 1 0 0 1 -1-1v-42.42a1 1 0 0 1 1-1h5.21a1 1 0 0 1 0 2h-4.21v40.42h66v-5.78a1 1 0 0 1 2 0v6.78a1 1 0 0 1 -1 1z"/><path d="m71 52.58a1 1 0 0 1 -1-1v-6.24a1 1 0 0 1 2 0v6.24a1 1 0 0 1 -1 1z"/><path d="m71 30.11a1 1 0 0 1 -1-1v-7.17h-4.21a1 1 0 0 1 0-2h5.21a1 1 0 0 1 1 1v8.17a1 1 0 0 1 -1 1z"/><path d="m65.8 58.9h-57.595a1 1 0 0 1 -1-1v-41.769a1 1 0 0 1 1-1h5.285a1 1 0 1 1 0 2h-4.285v39.769h55.595v-39.769h-4.29a1 1 0 1 1 0-2h5.29a1 1 0 0 1 1 1v41.769a1 1 0 0 1 -1 1z"/><path d="m37 58.909a1 1 0 0 1 -1-1v-36.973a1 1 0 0 1 .278-.692c5.922-6.182 13.627-8.914 24.26-8.581a1 1 0 0 1 .969 1v39.437a1 1 0 0 1 -2 0v-38.459c-9.364-.113-16.22 2.343-21.507 7.7v36.568a1 1 0 0 1 -1 1z"/><path d="m37 58.909a1 1 0 0 1 -1-1v-36.567c-5.293-5.359-12.173-7.842-21.517-7.7v38.458a1 1 0 0 1 -2 0v-39.437a1 1 0 0 1 .97-1c10.627-.33 18.339 2.4 24.269 8.581a1 1 0 0 1 .278.692v36.973a1 1 0 0 1 -1 1z"/><path d="m37 58.911a1 1 0 0 1 -.441-1.9c7.7-3.765 23.169-5.821 23.823-5.907a1 1 0 0 1 .26 1.983c-.158.021-15.8 2.1-23.2 5.721a1 1 0 0 1 -.442.103z"/><path d="m37 58.911a1 1 0 0 1 -.439-.1c-7.409-3.623-23.046-5.7-23.2-5.721a1 1 0 1 1 .26-1.983c.654.086 16.121 2.142 23.822 5.907a1 1 0 0 1 -.44 1.9z"/><path d="m41.991 28.074a1 1 0 0 1 -.53-1.849 28.1 28.1 0 0 1 14.162-4.355 1 1 0 0 1 .058 2 26.129 26.129 0 0 0 -13.163 4.054 1 1 0 0 1 -.527.15z"/><path d="m41.991 35a1 1 0 0 1 -.53-1.849 28.111 28.111 0 0 1 14.161-4.351.973.973 0 0 1 1.029.97 1 1 0 0 1 -.969 1.029 26.147 26.147 0 0 0 -13.164 4.055 1 1 0 0 1 -.527.146z"/><path d="m41.991 41.926a1 1 0 0 1 -.53-1.849 28.1 28.1 0 0 1 14.162-4.355 1 1 0 0 1 .058 2 26.116 26.116 0 0 0 -13.163 4.054 1 1 0 0 1 -.527.15z"/><path d="m41.991 48.852a1 1 0 0 1 -.53-1.852 28.105 28.105 0 0 1 14.162-4.356 1 1 0 0 1 .058 2 26.13 26.13 0 0 0 -13.163 4.056 1 1 0 0 1 -.527.152z"/><path d="m32.009 28.074a1 1 0 0 1 -.527-.151 26.129 26.129 0 0 0 -13.163-4.054 1 1 0 0 1 -.97-1.029 1.013 1.013 0 0 1 1.028-.97 28.1 28.1 0 0 1 14.162 4.355 1 1 0 0 1 -.53 1.849z"/><path d="m32.009 35a1 1 0 0 1 -.527-.151 26.147 26.147 0 0 0 -13.164-4.055 1 1 0 0 1 -.969-1.029.986.986 0 0 1 1.029-.97 28.111 28.111 0 0 1 14.161 4.356 1 1 0 0 1 -.53 1.849z"/><path d="m32.009 41.926a1 1 0 0 1 -.527-.151 26.116 26.116 0 0 0 -13.163-4.054 1 1 0 0 1 .058-2 28.1 28.1 0 0 1 14.162 4.355 1 1 0 0 1 -.53 1.849z"/><path d="m32.009 48.852a1 1 0 0 1 -.527-.151 26.13 26.13 0 0 0 -13.163-4.055 1 1 0 0 1 -.97-1.028 1.017 1.017 0 0 1 1.028-.971 28.105 28.105 0 0 1 14.162 4.353 1 1 0 0 1 -.53 1.849z"/></svg>