<svg id="Icons" height="512" viewBox="0 0 74 74" width="512" xmlns="http://www.w3.org/2000/svg"><path d="m23.8 23.84a1 1 0 0 1 -.294-1.956l5.96-1.84a1 1 0 0 1 .59 1.912l-5.956 1.844a.981.981 0 0 1 -.3.04z"/><path d="m37 43.84a1.009 1.009 0 0 1 -.37-.071l-34-13.561a1 1 0 0 1 .07-1.883l5.29-1.64a1 1 0 0 1 .592 1.91l-2.592.8 31.01 12.368 25.9-10.325a1.015 1.015 0 0 1 .12-.057l4.98-1.981-31-9.593-2.165.669a1 1 0 1 1 -.59-1.912l2.46-.76a1 1 0 0 1 .59 0l34 10.52a1 1 0 0 1 .075 1.884l-7.49 2.982a.95.95 0 0 1 -.12.058l-26.39 10.521a1.009 1.009 0 0 1 -.37.071z"/><path d="m13.069 27.161a1 1 0 0 1 -.3-1.956l5.951-1.841a1 1 0 1 1 .59 1.911l-5.95 1.841a1.013 1.013 0 0 1 -.291.045z"/><path d="m16.8 47.849a1 1 0 0 1 -1-1v-12.064a1 1 0 1 1 2 0v12.064a1 1 0 0 1 -1 1z"/><path d="m57.188 47.849a1 1 0 0 1 -1-1v-12.064a1 1 0 0 1 2 0v12.064a1 1 0 0 1 -1 1z"/><path d="m37 56.239c-11.884 0-21.193-4.123-21.193-9.386a1 1 0 1 1 2 0c0 3.493 7.882 7.386 19.193 7.386s19.193-3.893 19.193-7.386a1 1 0 1 1 2 0c0 5.263-9.309 9.386-21.193 9.386z"/><path d="m63.393 44.387a1 1 0 0 1 -1-1v-10.2l-25.529-3.5a1 1 0 1 1 .272-1.982l26.393 3.615a1 1 0 0 1 .864.991v11.076a1 1 0 0 1 -1 1z"/><path d="m66.406 49.5h-5.687a1 1 0 0 1 -.978-1.211l.736-3.411a3.156 3.156 0 0 1 6.171 0l.736 3.411a1 1 0 0 1 -.978 1.211zm-4.448-2h3.209l-.474-2.2a1.157 1.157 0 0 0 -2.261 0z"/></svg>