<svg id="Icons" height="512" viewBox="0 0 74 74" width="512" xmlns="http://www.w3.org/2000/svg"><path d="m63.23 27.75a1 1 0 0 1 -1-1v-5.5a1 1 0 1 1 2 0v5.5a1 1 0 0 1 -1 1z"/><path d="m63.23 47.08a1 1 0 0 1 -1-1v-13.96a1 1 0 1 1 2 0v13.96a1 1 0 0 1 -1 1z"/><path d="m63.23 16.88a1 1 0 0 1 -1-1v-4.11h-9.06a1 1 0 0 1 0-2h10.06a1 1 0 0 1 1 1v5.11a1 1 0 0 1 -1 1z"/><path d="m46.083 11.771h-18.166a1 1 0 0 1 0-2h18.166a1 1 0 0 1 0 2z"/><path d="m10.771 21.826a1 1 0 0 1 -1-1v-10.055a1 1 0 0 1 1-1h10.055a1 1 0 0 1 0 2h-9.055v9.055a1 1 0 0 1 -1 1z"/><path d="m20.826 64.229h-10.055a1 1 0 0 1 -1-1v-35.312a1 1 0 0 1 2 0v34.312h9.055a1 1 0 1 1 0 2z"/><path d="m46.083 64.229h-18.166a1 1 0 0 1 0-2h18.166a1 1 0 0 1 0 2z"/><path d="m63.229 64.229h-10.055a1 1 0 1 1 0-2h9.055v-9.055a1 1 0 1 1 2 0v10.055a1 1 0 0 1 -1 1z"/><path d="m37 47.083a1 1 0 0 1 -1-1v-18.166a1 1 0 0 1 2 0v18.166a1 1 0 0 1 -1 1z"/><path d="m37 64.229a1 1 0 0 1 -1-1v-10.055a1 1 0 0 1 2 0v10.055a1 1 0 0 1 -1 1z"/><path d="m37 21.826a1 1 0 0 1 -1-1v-10.055a1 1 0 0 1 2 0v10.055a1 1 0 0 1 -1 1z"/><path d="m33.92 30.063a5.692 5.692 0 1 1 3.731-10 1 1 0 1 1 -1.3 1.517 3.692 3.692 0 1 0 0 5.575 1 1 0 1 1 1.3 1.516 5.733 5.733 0 0 1 -3.731 1.392z"/><path d="m13.851 30.063a5.732 5.732 0 0 1 -3.731-1.388 1 1 0 1 1 1.3-1.516 3.733 3.733 0 0 0 2.428.9 3.692 3.692 0 1 0 -2.428-6.479 1 1 0 1 1 -1.3-1.517 5.694 5.694 0 1 1 3.731 10z"/><path d="m40.08 55.321a5.732 5.732 0 0 1 -3.731-1.388 1 1 0 1 1 1.3-1.517 3.692 3.692 0 1 0 0-5.575 1 1 0 1 1 -1.3-1.516 5.694 5.694 0 1 1 3.732 10z"/><path d="m60.149 55.321a5.692 5.692 0 1 1 3.731-10 1 1 0 1 1 -1.3 1.516 3.733 3.733 0 0 0 -2.428-.9 3.692 3.692 0 1 0 2.428 6.479 1 1 0 0 1 1.3 1.517 5.732 5.732 0 0 1 -3.731 1.388z"/><path d="m46.083 38h-18.166a1 1 0 0 1 0-2h18.166a1 1 0 0 1 0 2z"/><path d="m20.826 38h-10.055a1 1 0 0 1 0-2h10.055a1 1 0 0 1 0 2z"/><path d="m63.229 38h-10.055a1 1 0 0 1 0-2h10.055a1 1 0 0 1 0 2z"/><path d="m53.174 38a1 1 0 0 1 -.758-1.651 3.692 3.692 0 1 0 -5.575 0 1 1 0 1 1 -1.516 1.3 5.692 5.692 0 1 1 8.608 0 1 1 0 0 1 -.759.351z"/><path d="m49.628 19.543a5.7 5.7 0 0 1 -4.3-9.423 1 1 0 1 1 1.516 1.3 3.733 3.733 0 0 0 -.9 2.428 3.692 3.692 0 1 0 6.479-2.428 1 1 0 1 1 1.517-1.3 5.7 5.7 0 0 1 -4.3 9.423z"/><path d="m49.628 72a5.7 5.7 0 0 1 -4.3-9.423 1 1 0 1 1 1.516 1.3 3.733 3.733 0 0 0 -.9 2.428 3.692 3.692 0 1 0 6.479-2.428 1 1 0 1 1 1.517-1.3 5.7 5.7 0 0 1 -4.312 9.423z"/><path d="m24.372 45.771a5.7 5.7 0 0 1 -4.3-9.422 1 1 0 1 1 1.517 1.3 3.692 3.692 0 1 0 5.575 0 1 1 0 1 1 1.516-1.3 5.7 5.7 0 0 1 -4.3 9.423z"/><path d="m20.826 11.771a1 1 0 0 1 -.759-.348 5.692 5.692 0 1 1 8.608 0 1 1 0 1 1 -1.516-1.3 3.733 3.733 0 0 0 .9-2.428 3.692 3.692 0 1 0 -6.479 2.428 1 1 0 0 1 -.758 1.651z"/><path d="m20.826 64.229a1 1 0 0 1 -.759-.349 5.692 5.692 0 1 1 8.608 0 1 1 0 1 1 -1.516-1.3 3.733 3.733 0 0 0 .9-2.428 3.692 3.692 0 1 0 -6.479 2.428 1 1 0 0 1 -.758 1.652z"/></svg>