<svg id="Icons" height="512" viewBox="0 0 74 74" width="512" xmlns="http://www.w3.org/2000/svg"><path d="m12 44.73a1 1 0 0 1 -1-1v-6.23a1 1 0 0 1 2 0v6.23a1 1 0 0 1 -1 1z"/><path d="m62 72h-50a1 1 0 0 1 -1-1v-22.27a1 1 0 0 1 2 0v21.27h48v-51.246l-14.745-14.754h-33.255v17.27a1 1 0 0 1 -2 0v-18.27a1 1 0 0 1 1-1h34.67a1 1 0 0 1 .707.293l15.331 15.34a1 1 0 0 1 .292.707v52.66a1 1 0 0 1 -1 1z"/><path d="m12 33.5a1 1 0 0 1 -1-1v-6.23a1 1 0 1 1 2 0v6.23a1 1 0 0 1 -1 1z"/><path d="m62 19.34h-15.33a1 1 0 0 1 -1-1v-15.34a1 1 0 0 1 2 0v14.34h14.33a1 1 0 0 1 0 2z"/><path d="m54 59h-34a1 1 0 0 1 0-2h34a1 1 0 0 1 0 2z"/><path d="m54 49.333h-34a1 1 0 0 1 0-2h34a1 1 0 0 1 0 2z"/><path d="m54 39.667h-34a1 1 0 0 1 0-2h34a1 1 0 0 1 0 2z"/><path d="m54 30h-34a1 1 0 0 1 0-2h34a1 1 0 0 1 0 2z"/></svg>