<svg id="Icons" height="512" viewBox="0 0 74 74" width="512" xmlns="http://www.w3.org/2000/svg"><path d="m48.375 5.32h-5.52a1 1 0 1 1 0-2h5.52a1 1 0 0 1 0 2z"/><path d="m64.57 40.04h-55.14a1 1 0 0 1 -1-1v-34.72a1 1 0 0 1 1-1h16.84a1 1 0 0 1 0 2h-15.84v32.72h53.14v-32.72h-9.84a1 1 0 1 1 0-2h10.84a1 1 0 0 1 1 1v34.72a1 1 0 0 1 -1 1z"/><path d="m37 5.32h-5.23a1 1 0 1 1 0-2h5.23a1 1 0 0 1 0 2z"/><path d="m71 70.676h-18.986a1 1 0 0 1 -1-1v-4.747a5.753 5.753 0 0 1 5.746-5.746h9.493a5.753 5.753 0 0 1 5.747 5.746v4.747a1 1 0 0 1 -1 1zm-17.986-2h16.986v-3.747a3.751 3.751 0 0 0 -3.747-3.746h-9.493a3.75 3.75 0 0 0 -3.746 3.746z"/><path d="m61.507 57.21a6.024 6.024 0 1 1 6.023-6.023 6.031 6.031 0 0 1 -6.023 6.023zm0-10.047a4.024 4.024 0 1 0 4.023 4.024 4.028 4.028 0 0 0 -4.023-4.024z"/><path d="m66.06 70.676h-9.106a1 1 0 0 1 -1-1v-3.576a1 1 0 0 1 2 0v2.572h7.106v-2.572a1 1 0 1 1 2 0v3.572a1 1 0 0 1 -1 1.004z"/><path d="m46.493 70.676h-18.986a1 1 0 0 1 -1-1v-4.747a5.753 5.753 0 0 1 5.746-5.746h9.494a5.753 5.753 0 0 1 5.746 5.746v4.747a1 1 0 0 1 -1 1zm-17.986-2h16.986v-3.747a3.75 3.75 0 0 0 -3.746-3.746h-9.494a3.75 3.75 0 0 0 -3.746 3.746z"/><path d="m37 57.21a6.024 6.024 0 1 1 6.023-6.023 6.03 6.03 0 0 1 -6.023 6.023zm0-10.047a4.024 4.024 0 1 0 4.023 4.024 4.027 4.027 0 0 0 -4.023-4.024z"/><path d="m41.553 70.676h-9.106a1 1 0 0 1 -1-1v-3.576a1 1 0 1 1 2 0v2.572h7.106v-2.572a1 1 0 0 1 2 0v3.572a1 1 0 0 1 -1 1.004z"/><path d="m21.986 70.676h-18.986a1 1 0 0 1 -1-1v-4.747a5.753 5.753 0 0 1 5.747-5.746h9.493a5.753 5.753 0 0 1 5.746 5.746v4.747a1 1 0 0 1 -1 1zm-17.986-2h16.986v-3.747a3.75 3.75 0 0 0 -3.746-3.746h-9.493a3.751 3.751 0 0 0 -3.747 3.746z"/><path d="m12.493 57.21a6.024 6.024 0 1 1 6.024-6.023 6.03 6.03 0 0 1 -6.024 6.023zm0-10.047a4.024 4.024 0 1 0 4.024 4.024 4.027 4.027 0 0 0 -4.024-4.024z"/><path d="m17.046 70.676h-9.106a1 1 0 0 1 -1-1v-3.576a1 1 0 0 1 2 0v2.572h7.106v-2.572a1 1 0 0 1 2 0v3.572a1 1 0 0 1 -1 1.004z"/><path d="m55.891 13.493h-37.782a1 1 0 0 1 0-2h37.782a1 1 0 0 1 0 2z"/><path d="m55.891 22.683h-37.782a1 1 0 0 1 0-2h37.782a1 1 0 0 1 0 2z"/><path d="m55.891 31.874h-20.933a1 1 0 0 1 0-2h20.933a1 1 0 0 1 0 2z"/></svg>