<?xml version="1.0" encoding="UTF-8"?>
<svg xmlns="http://www.w3.org/2000/svg" id="Icons" viewBox="0 0 74 74" width="512" height="512"><path d="M11.824,64.2H6.241a3.19,3.19,0,0,1-3.173-3.51l.995-9.851a3.182,3.182,0,0,1,3.173-2.869h4.588a1,1,0,0,1,1,1V63.2A1,1,0,0,1,11.824,64.2ZM7.236,49.973a1.185,1.185,0,0,0-1.183,1.07L5.059,60.9A1.186,1.186,0,0,0,6.241,62.2h4.583V49.973Z"/><path d="M67.759,64.2H62.176a1,1,0,0,1-1-1V48.973a1,1,0,0,1,1-1h4.588a3.183,3.183,0,0,1,3.174,2.869l.994,9.851a3.19,3.19,0,0,1-3.173,3.51Zm-4.583-2h4.583A1.186,1.186,0,0,0,68.941,60.9l-.994-9.852a1.185,1.185,0,0,0-1.183-1.07H63.176Z"/><path d="M51.709,64.2H22.291A3.192,3.192,0,0,1,19.1,61.014V47.878a3.192,3.192,0,0,1,3.188-3.189H51.709A3.192,3.192,0,0,1,54.9,47.878V61.014A3.192,3.192,0,0,1,51.709,64.2ZM22.291,46.689A1.19,1.19,0,0,0,21.1,47.878V61.014A1.19,1.19,0,0,0,22.291,62.2H51.709A1.19,1.19,0,0,0,52.9,61.014V47.878a1.19,1.19,0,0,0-1.188-1.189Z"/><path d="M47.946,52.163H26.054a1,1,0,0,1,0-2H47.946a1,1,0,0,1,0,2Z"/><path d="M62.1,33.62a1,1,0,0,1-1-.925,23.281,23.281,0,0,0-1.324-6.184,1,1,0,0,1,1.881-.682A25.293,25.293,0,0,1,63.1,32.545a1,1,0,0,1-.922,1.072Z"/><path d="M58.89,72H15.11a4.29,4.29,0,0,1-4.29-4.28V34.61A26.191,26.191,0,0,1,27.893,10.062a26.345,26.345,0,0,1,18.216,0,24.979,24.979,0,0,1,4.9,2.446,1,1,0,0,1-.5,1.861,1.031,1.031,0,0,1-.554-.161,23.006,23.006,0,0,0-4.542-2.271,24.174,24.174,0,0,0-25.508,5.57,24.028,24.028,0,0,0-7.086,17.1V67.72A2.288,2.288,0,0,0,15.11,70H58.89a2.288,2.288,0,0,0,2.29-2.28V38.4a1,1,0,0,1,2,0V67.72A4.29,4.29,0,0,1,58.89,72Z"/><path d="M58.581,22.63a1,1,0,0,1-.856-.482A24.508,24.508,0,0,0,53.988,17.4a1,1,0,0,1,1.405-1.424,26.482,26.482,0,0,1,4.043,5.134,1,1,0,0,1-.855,1.518Z"/><path d="M53.979,27.469a1,1,0,0,1-.915-.593,17.593,17.593,0,0,0-32.128,0,1,1,0,0,1-1.827-.816,19.595,19.595,0,0,1,35.782,0,1,1,0,0,1-.912,1.409Z"/><path d="M45.757,12a1,1,0,0,1-1-1V5.189A1.19,1.19,0,0,0,43.567,4H30.433a1.19,1.19,0,0,0-1.19,1.189V11a1,1,0,1,1-2,0V5.189A3.193,3.193,0,0,1,30.433,2H43.567a3.193,3.193,0,0,1,3.19,3.189V11A1,1,0,0,1,45.757,12Z"/><path d="M41.063,28.968H32.938a3.5,3.5,0,0,1,0-7h8.125a3.5,3.5,0,0,1,0,7Zm-8.125-5a1.5,1.5,0,0,0,0,3h8.125a1.5,1.5,0,0,0,0-3Z"/></svg>
