<?xml version="1.0" encoding="UTF-8"?>
<svg xmlns="http://www.w3.org/2000/svg" id="Icons" viewBox="0 0 74 74" width="512" height="512"><path d="M37,72H30.77a1,1,0,1,1,0-2H37a1,1,0,0,1,0,2Z"/><path d="M69,72H53.23a1,1,0,1,1,0-2H69V65H5v5H25.77a1,1,0,0,1,0,2H5a2,2,0,0,1-2-2V65a2,2,0,0,1,2-2H69a2,2,0,0,1,2,2v5A2,2,0,0,1,69,72Z"/><path d="M48.23,72H42a1,1,0,0,1,0-2h6.23a1,1,0,0,1,0,2Z"/><path d="M65.75,65h-5.5a1,1,0,0,1-1-1V5.75a3.75,3.75,0,0,1,7.5,0V64A1,1,0,0,1,65.75,65Zm-4.5-2h3.5V5.75a1.75,1.75,0,0,0-3.5,0Z"/><path d="M13.75,65H8.25a1,1,0,0,1-1-1V5.75a3.75,3.75,0,0,1,7.5,0V64A1,1,0,0,1,13.75,65Zm-4.5-2h3.5V5.75a1.75,1.75,0,0,0-3.5,0Z"/><path d="M60.25,15H54a1,1,0,0,1,0-2h6.25a1,1,0,0,1,0,2Z"/><path d="M35.42,15H13.75a1,1,0,0,1,0-2H35.42a1,1,0,0,1,0,2Z"/><path d="M46.83,15H42.58a1,1,0,0,1,0-2h4.25a1,1,0,0,1,0,2Z"/><path d="M60.25,28H13.75a1,1,0,0,1,0-2h46.5a1,1,0,0,1,0,2Z"/><path d="M60.25,41H38.29a1,1,0,1,1,0-2H60.25a1,1,0,0,1,0,2Z"/><path d="M19.71,41H13.75a1,1,0,0,1,0-2h5.96a1,1,0,0,1,0,2Z"/><path d="M31.12,41H26.88a1,1,0,1,1,0-2h4.24a1,1,0,0,1,0,2Z"/><path d="M43.12,54H35.88a1,1,0,1,1,0-2h7.24a1,1,0,1,1,0,2Z"/><path d="M60.25,54H50.29a1,1,0,1,1,0-2h9.96a1,1,0,0,1,0,2Z"/><path d="M28.71,54H13.75a1,1,0,0,1,0-2H28.71a1,1,0,1,1,0,2Z"/><path d="M50.417,18.583A4.583,4.583,0,1,1,55,14,4.589,4.589,0,0,1,50.417,18.583Zm0-7.166A2.583,2.583,0,1,0,53,14,2.586,2.586,0,0,0,50.417,11.417Z"/><path d="M39,18.583A4.583,4.583,0,1,1,43.583,14,4.588,4.588,0,0,1,39,18.583Zm0-7.166A2.583,2.583,0,1,0,41.583,14,2.586,2.586,0,0,0,39,11.417Z"/><path d="M34.708,44.583A4.583,4.583,0,1,1,39.292,40,4.588,4.588,0,0,1,34.708,44.583Zm0-7.166A2.583,2.583,0,1,0,37.292,40,2.586,2.586,0,0,0,34.708,37.417Z"/><path d="M23.292,44.583A4.583,4.583,0,1,1,27.875,40,4.589,4.589,0,0,1,23.292,44.583Zm0-7.166A2.583,2.583,0,1,0,25.875,40,2.586,2.586,0,0,0,23.292,37.417Z"/><path d="M46.708,57.583A4.583,4.583,0,1,1,51.292,53,4.588,4.588,0,0,1,46.708,57.583Zm0-7.166A2.583,2.583,0,1,0,49.292,53,2.586,2.586,0,0,0,46.708,50.417Z"/><path d="M32.292,57.583A4.583,4.583,0,1,1,36.875,53,4.589,4.589,0,0,1,32.292,57.583Zm0-7.166A2.583,2.583,0,1,0,34.875,53,2.586,2.586,0,0,0,32.292,50.417Z"/></svg>
