<svg id="Icons" height="512" viewBox="0 0 74 74" width="512" xmlns="http://www.w3.org/2000/svg"><path d="m43.369 40.51a.986.986 0 0 1 -.489-.129 1 1 0 0 1 -.38-1.361l3.06-5.44a1 1 0 0 1 1.744.98l-3.062 5.44a1 1 0 0 1 -.873.51z"/><path d="m31.789 61.09a.986.986 0 0 1 -.489-.129l-15.18-8.54a1 1 0 0 1 -.381-1.361l26.689-47.44a3.169 3.169 0 0 1 4.322-1.212l11.391 6.41a3.187 3.187 0 0 1 1.212 4.322l-9.6 17.07a1 1 0 1 1 -1.742-.98l9.6-17.07a1.179 1.179 0 0 0 -.451-1.6l-11.39-6.409a1.174 1.174 0 0 0 -1.6.449l-26.2 46.568 13.436 7.56 3.13-5.559a1 1 0 0 1 1.742.982l-3.62 6.43a1 1 0 0 1 -.869.509z"/><path d="m37.859 50.3a1 1 0 0 1 -.87-1.491l3.06-5.43a1 1 0 1 1 1.742.982l-3.06 5.43a1 1 0 0 1 -.872.509z"/><path d="m15.659 72a1 1 0 0 1 -1-1.049l.951-19.451a1 1 0 0 1 1.49-.822l15.179 8.54a1 1 0 0 1 .071 1.7l-16.13 10.91a1 1 0 0 1 -.561.172zm1.87-18.786-.773 15.837 13.133-8.883z"/><path d="m52.606 24.088a1 1 0 0 1 -.489-.128l-15.18-8.541a1 1 0 0 1 .98-1.743l15.183 8.541a1 1 0 0 1 -.492 1.871z"/><path d="m29 48.281a.986.986 0 0 1 -.489-.129 1 1 0 0 1 -.381-1.361l11.212-19.924a1 1 0 1 1 1.742.98l-11.209 19.924a1 1 0 0 1 -.875.51z"/><path d="m24.309 66.149a.993.993 0 0 1 -.76-.35 12.777 12.777 0 0 0 -7.541-4.242 1 1 0 1 1 .322-1.974 14.751 14.751 0 0 1 8.738 4.917 1 1 0 0 1 -.759 1.649z"/><path d="m52.208 72h-29a1 1 0 0 1 0-2h29a1 1 0 0 1 0 2z"/></svg>