<?xml version="1.0" encoding="UTF-8"?>
<svg xmlns="http://www.w3.org/2000/svg" id="Icons" viewBox="0 0 74 74" width="512" height="512"><path d="M58.32,21.005a1,1,0,0,1,0-2,2.972,2.972,0,1,0-2.972-2.971,1,1,0,1,1-2,0,4.972,4.972,0,1,1,4.972,4.971Z"/><path d="M46.405,21.005a1,1,0,0,1,0-2,2.972,2.972,0,1,0-2.972-2.971,1,1,0,0,1-2,0,4.972,4.972,0,1,1,4.972,4.971Z"/><path d="M34.489,21.005a1,1,0,0,1,0-2,2.972,2.972,0,1,0-2.971-2.971,1,1,0,0,1-2,0,4.972,4.972,0,1,1,4.971,4.971Z"/><path d="M22.574,21.005a1,1,0,0,1,0-2A2.972,2.972,0,1,0,19.6,16.034a1,1,0,0,1-2,0,4.972,4.972,0,1,1,4.972,4.971Z"/><path d="M51.73,62.94H45.5a1,1,0,0,1,0-2h6.23a1,1,0,0,1,0,2Z"/><path d="M71,62.94H56.73a1,1,0,1,1,0-2H69.954L68.5,28.74H13.646l1.45,32.2H29.27a1,1,0,0,1,0,2H14.14a1,1,0,0,1-1-.955l-1.54-34.2a1,1,0,0,1,1-1.045H69.46a1,1,0,0,1,1,.955L72,61.9a1,1,0,0,1-1,1.045Z"/><path d="M40.5,62.94H34.27a1,1,0,0,1,0-2H40.5a1,1,0,0,1,0,2Z"/><path d="M69.459,28.74H12.6a1,1,0,0,1-1-.95l-.583-11.707a1,1,0,0,1,1-1.049H68.876a1,1,0,0,1,1,.95l.583,11.706a1,1,0,0,1-1,1.05Zm-55.907-2H68.408l-.483-9.706H13.068Z"/><path d="M14.142,62.938a1,1,0,0,1-.795-.392l-3.835-5.01H3a1,1,0,0,1-.976-1.217l9.018-40.5a1,1,0,0,1,1.952.435L4.247,55.536h5.758a1,1,0,0,1,.794.392l4.136,5.4a1,1,0,0,1-.793,1.608Z"/><path d="M62.029,37H59.106a1,1,0,1,1,0-2h2.923a1,1,0,0,1,0,2Z"/><path d="M49.852,37H46.929a1,1,0,0,1,0-2h2.923a1,1,0,1,1,0,2Z"/><path d="M37.674,37H34.751a1,1,0,0,1,0-2h2.923a1,1,0,1,1,0,2Z"/><path d="M25.5,37H22.574a1,1,0,1,1,0-2H25.5a1,1,0,0,1,0,2Z"/><path d="M62.577,45.508H59.654a1,1,0,0,1,0-2h2.923a1,1,0,0,1,0,2Z"/><path d="M50.4,45.508H47.477a1,1,0,0,1,0-2H50.4a1,1,0,0,1,0,2Z"/><path d="M38.222,45.508H35.3a1,1,0,0,1,0-2h2.923a1,1,0,0,1,0,2Z"/><path d="M26.044,45.508H23.122a1,1,0,1,1,0-2h2.922a1,1,0,1,1,0,2Z"/><path d="M63.125,54.016H60.2a1,1,0,0,1,0-2h2.922a1,1,0,0,1,0,2Z"/><path d="M50.948,54.016H48.025a1,1,0,0,1,0-2h2.923a1,1,0,0,1,0,2Z"/><path d="M38.77,54.016H35.848a1,1,0,0,1,0-2H38.77a1,1,0,0,1,0,2Z"/><path d="M26.593,54.016H23.67a1,1,0,0,1,0-2h2.923a1,1,0,0,1,0,2Z"/></svg>
