<svg id="Icons" height="512" viewBox="0 0 74 74" width="512" xmlns="http://www.w3.org/2000/svg"><path d="m14.3 34.342a1 1 0 0 1 -.707-1.707l4.116-4.116a1 1 0 1 1 1.414 1.414l-4.116 4.116a.993.993 0 0 1 -.707.293z"/><path d="m19.622 39.663a1 1 0 0 1 -.707-1.707l2.469-2.47a1 1 0 1 1 1.416 1.414l-2.469 2.47a1 1 0 0 1 -.709.293z"/><path d="m24.942 44.983a1 1 0 0 1 -.707-1.707l4.116-4.115a1 1 0 0 1 1.414 1.414l-4.116 4.115a.993.993 0 0 1 -.707.293z"/><path d="m30.263 50.3a1 1 0 0 1 -.707-1.707l2.469-2.47a1 1 0 0 1 1.414 1.415l-2.469 2.473a1 1 0 0 1 -.707.289z"/><path d="m35.583 55.625a1 1 0 0 1 -.707-1.707l4.117-4.118a1 1 0 1 1 1.414 1.414l-4.116 4.116a1 1 0 0 1 -.708.295z"/><path d="m40.9 60.946a1 1 0 0 1 -.707-1.707l2.47-2.47a1 1 0 0 1 1.414 1.414l-2.47 2.47a1 1 0 0 1 -.707.293z"/><path d="m46.225 66.266a1 1 0 0 1 -.707-1.707l4.116-4.116a1 1 0 0 1 1.414 1.414l-4.116 4.116a1 1 0 0 1 -.707.293z"/><path d="m55.55 37.04a1 1 0 0 1 -.707-.292l-4.409-4.4a1 1 0 1 1 1.413-1.416l4.409 4.4a1 1 0 0 1 -.706 1.708z"/><path d="m52.805 72.013a3.01 3.01 0 0 1 -2.142-.886l-47.54-47.55a3.02 3.02 0 0 1 0-4.274l16.41-16.41a3.093 3.093 0 0 1 4.274 0l16.56 16.56a1 1 0 0 1 -1.414 1.414l-16.56-16.56a1.044 1.044 0 0 0 -1.445 0l-16.411 16.41a1.025 1.025 0 0 0 0 1.446l47.54 47.55a1.031 1.031 0 0 0 1.456 0l16.409-16.42a1.024 1.024 0 0 0 0-1.446l-11.569-11.559a1 1 0 0 1 1.414-1.415l11.57 11.56a3.02 3.02 0 0 1 0 4.274l-16.409 16.42a3.012 3.012 0 0 1 -2.143.886z"/><path d="m47.61 29.1a1 1 0 0 1 -.707-.293l-4.41-4.41a1 1 0 0 1 1.414-1.414l4.41 4.41a1 1 0 0 1 -.707 1.707z"/><path d="m18.019 21.857a4.069 4.069 0 1 1 2.878-1.19 4.061 4.061 0 0 1 -2.878 1.19zm0-6.139a2.063 2.063 0 0 0 -1.465.605 2.075 2.075 0 1 0 1.465-.605z"/></svg>