<svg id="Icons" height="512" viewBox="0 0 74 74" width="512" xmlns="http://www.w3.org/2000/svg"><path d="m69.88 46.741a1.022 1.022 0 0 1 -.255-.034 1 1 0 0 1 -.712-1.222 33.6 33.6 0 0 0 1.01-6.05 1 1 0 0 1 1.994.149 35.615 35.615 0 0 1 -1.07 6.416 1 1 0 0 1 -.967.741z"/><path d="m37.01 72.01a35 35 0 1 1 32.015-49.144 1 1 0 0 1 -1.83.808 32.994 32.994 0 1 0 .01 26.662 1 1 0 0 1 1.83.808 35.021 35.021 0 0 1 -32.025 20.866z"/><path d="m70.919 35.51a1 1 0 0 1 -1-.926 32.837 32.837 0 0 0 -1.019-6.055 1 1 0 1 1 1.932-.518 34.812 34.812 0 0 1 1.081 6.424 1 1 0 0 1 -.913 1.072z"/><path d="m37.011 65.008a28 28 0 1 1 28-28 28.031 28.031 0 0 1 -28 28zm0-54a26 26 0 1 0 26 26 26.029 26.029 0 0 0 -26-26z"/><path d="m37.011 18.594a1 1 0 0 1 -1-1v-2.586a1 1 0 0 1 2 0v2.586a1 1 0 0 1 -1 1z"/><path d="m37.011 60.008a1 1 0 0 1 -1-1v-2.586a1 1 0 0 1 2 0v2.586a1 1 0 0 1 -1 1z"/><path d="m50.739 24.28a1 1 0 0 1 -.707-1.707l1.828-1.828a1 1 0 1 1 1.414 1.414l-1.828 1.828a1 1 0 0 1 -.707.293z"/><path d="m21.455 53.564a1 1 0 0 1 -.707-1.707l1.828-1.828a1 1 0 0 1 1.414 1.414l-1.828 1.828a1 1 0 0 1 -.707.293z"/><path d="m52.567 53.564a1 1 0 0 1 -.707-.293l-1.828-1.828a1 1 0 0 1 1.414-1.414l1.828 1.828a1 1 0 0 1 -.707 1.707z"/><path d="m23.283 24.28a1 1 0 0 1 -.707-.293l-1.828-1.828a1 1 0 1 1 1.414-1.414l1.828 1.828a1 1 0 0 1 -.707 1.707z"/><path d="m59.011 38.008h-2.586a1 1 0 0 1 0-2h2.586a1 1 0 0 1 0 2z"/><path d="m17.6 38.008h-2.589a1 1 0 0 1 0-2h2.589a1 1 0 0 1 0 2z"/><path d="m32.942 42.181a1 1 0 0 1 -.707-1.707l3.765-3.765v-12.7a1 1 0 1 1 2 0v13.115a1 1 0 0 1 -.293.707l-4.058 4.057a1 1 0 0 1 -.707.293z"/></svg>