<svg id="Icons" height="512" viewBox="0 0 74 74" width="512" xmlns="http://www.w3.org/2000/svg"><path d="m63.714 62.853h-53.424a1 1 0 0 1 -1-1v-7.425a1 1 0 0 1 1-1h53.424a1 1 0 0 1 1 1v7.425a1 1 0 0 1 -1 1zm-52.424-2h51.424v-5.425h-51.424z"/><path d="m54.539 27.35a1 1 0 0 1 -.991-.87 16.451 16.451 0 0 0 -1.819-5.648 1 1 0 0 1 1.762-.944 18.449 18.449 0 0 1 2.041 6.332 1 1 0 0 1 -.862 1.122 1.166 1.166 0 0 1 -.131.008z"/><path d="m63.709 55.43a1 1 0 0 1 -.662-.251 27.3 27.3 0 0 1 -8.281-12.251 1 1 0 1 1 1.909-.6 25.346 25.346 0 0 0 7.7 11.35 1 1 0 0 1 -.664 1.748z"/><path d="m54.779 38.72a1 1 0 0 1 -.994-.9c-.042-.415-.074-.831-.084-1.257v-5.163a1 1 0 1 1 2 0v5.14c.009.35.038.714.075 1.079a1 1 0 0 1 -.894 1.1.882.882 0 0 1 -.103.001z"/><path d="m10.291 55.43a1 1 0 0 1 -.552-1.83c5.52-3.64 8.24-9.072 8.562-17.095v-7.805a18.694 18.694 0 0 1 31.611-13.522 1 1 0 0 1 -1.383 1.444 16.7 16.7 0 0 0 -28.229 12.078v7.84c-.35 8.762-3.356 14.7-9.459 18.725a1 1 0 0 1 -.55.165z"/><path d="m63.72 55.43h-53.43a1 1 0 0 1 -.01-2h53.43a1 1 0 0 1 .01 2z"/><path d="m41.5 12.577a1 1 0 0 1 -1-1v-4.077a3.5 3.5 0 0 0 -7 0v4.075a1 1 0 1 1 -2 0v-4.075a5.5 5.5 0 0 1 11 0v4.075a1 1 0 0 1 -1 1.002z"/><path d="m37 72a10.163 10.163 0 0 1 -10.151-10.151 1 1 0 0 1 2 0 8.151 8.151 0 0 0 16.3 0 1 1 0 0 1 2 0 10.163 10.163 0 0 1 -10.149 10.151z"/></svg>