<svg id="Icons" height="512" viewBox="0 0 74 74" width="512" xmlns="http://www.w3.org/2000/svg"><path d="m66.94 67.7a1 1 0 0 1 -1-1v-20.31a1 1 0 0 1 2 0v20.31a1 1 0 0 1 -1 1z"/><path d="m71 67.7h-23.27a1 1 0 0 1 0-2h23.27a1 1 0 0 1 0 2z"/><path d="m31.5 67.7h-6.23a1 1 0 1 1 0-2h6.23a1 1 0 0 1 0 2z"/><path d="m20.27 67.7h-7.11a11.155 11.155 0 1 1 0-22.31h57.84a1 1 0 0 1 0 2h-57.84a9.155 9.155 0 1 0 0 18.31h7.11a1 1 0 0 1 0 2z"/><path d="m42.73 67.7h-6.23a1 1 0 0 1 0-2h6.23a1 1 0 1 1 0 2z"/><path d="m66.94 61.106h-43.64a1 1 0 1 1 0-2h42.64v-5.119h-42.64a1 1 0 1 1 0-2h43.64a1 1 0 0 1 1 1v7.119a1 1 0 0 1 -1 1z"/><path d="m43.609 47.39a10.494 10.494 0 0 1 -6.609-2.423 10.5 10.5 0 0 1 -6.81 2.421c-7.358-.142-11.369-15.11-11.461-21.465a12.474 12.474 0 0 1 3.5-8.9 10.835 10.835 0 0 1 14.771-.774 10.835 10.835 0 0 1 14.772.769 12.474 12.474 0 0 1 3.5 8.9c-.092 6.355-4.1 21.323-11.462 21.465zm-6.609-4.751a1 1 0 0 1 .687.273 8.6 8.6 0 0 0 6.082 2.476c5.328-.1 9.406-12.882 9.5-19.494a10.461 10.461 0 0 0 -2.923-7.473 8.855 8.855 0 0 0 -12.646-.112 1 1 0 0 1 -1.394 0 8.855 8.855 0 0 0 -12.651.112 10.461 10.461 0 0 0 -2.923 7.473c.1 6.612 4.174 19.392 9.5 19.494a8.513 8.513 0 0 0 6.083-2.476 1 1 0 0 1 .685-.273z"/><path d="m37 18.59a1 1 0 0 1 -.993-.89c-.025-.226-.568-5.579 2.607-8.9 1.764-1.845 4.28-2.674 7.485-2.472a1 1 0 1 1 -.128 2c-2.576-.164-4.568.458-5.905 1.851-2.532 2.64-2.076 7.264-2.071 7.31a.993.993 0 0 1 -.995 1.101z"/><path d="m36.786 16.9a9.028 9.028 0 0 1 -9.087-9.3 1 1 0 0 1 .978-.979 9.032 9.032 0 0 1 9.3 9.3 1 1 0 0 1 -.978.979zm-7.039-8.225a7 7 0 0 0 6.177 6.178 7 7 0 0 0 -6.177-6.178z"/></svg>