<svg id="Icons" height="512" viewBox="0 0 74 74" width="512" xmlns="http://www.w3.org/2000/svg"><path d="m65.879 24.82a1 1 0 0 1 -.973-.771 24.857 24.857 0 0 0 -2.094-5.7 1 1 0 1 1 1.777-.917 26.924 26.924 0 0 1 2.265 6.158 1 1 0 0 1 -.745 1.2.957.957 0 0 1 -.23.03z"/><path d="m57.58 72h-30.66a1 1 0 0 1 -1-1v-7.07h-7.25a6.412 6.412 0 0 1 -6.39-6.3l-.137-7.214-5.186-2.345a1 1 0 0 1 -.485-1.35l5.41-11.056a28.137 28.137 0 0 1 49.718-22.913 1 1 0 1 1 -1.573 1.236 26.149 26.149 0 0 0 -46.118 21.612 1 1 0 0 1 -.081.643l-5.107 10.431 4.822 2.185a1 1 0 0 1 .587.892l.15 7.85a4.405 4.405 0 0 0 4.39 4.329h8.25a1 1 0 0 1 1 1v7.07h28.66v-6.24a39.464 39.464 0 0 1 5.382-20.252 24.647 24.647 0 0 0 1.644-3.262 1 1 0 0 1 1.848.768 26.862 26.862 0 0 1 -1.776 3.521 37.475 37.475 0 0 0 -5.1 19.225v7.24a1 1 0 0 1 -.998 1z"/><path d="m66.151 36.21a.969.969 0 0 1 -.192-.019 1 1 0 0 1 -.79-1.172 25.586 25.586 0 0 0 .461-4.879c0-.438-.009-.867-.038-1.3a1 1 0 0 1 2-.132c.031.483.042.954.042 1.436a27.628 27.628 0 0 1 -.5 5.261 1 1 0 0 1 -.983.805z"/><path d="m39 48a19 19 0 1 1 19-19 19.021 19.021 0 0 1 -19 19zm0-36a17 17 0 1 0 17 17 17.019 17.019 0 0 0 -17-17z"/><path d="m39 35.5a1 1 0 0 1 -1-1v-.185a8.423 8.423 0 0 1 3.437-6.643 4.02 4.02 0 0 0 1.472-4.044 4 4 0 0 0 -7.909.872 1 1 0 0 1 -2 0 6 6 0 1 1 9.657 4.757 6.44 6.44 0 0 0 -2.657 5.058v.185a1 1 0 0 1 -1 1z"/><path d="m39 39.281a1 1 0 0 1 -1-1v-.562a1 1 0 1 1 2 0v.562a1 1 0 0 1 -1 1z"/></svg>