<svg id="Icons" height="512" viewBox="0 0 74 74" width="512" xmlns="http://www.w3.org/2000/svg"><path d="m43.99 44.99a1 1 0 0 1 -.707-.293l-4.41-4.41a1 1 0 0 1 1.414-1.414l4.41 4.41a1 1 0 0 1 -.707 1.707z"/><path d="m71 72h-68a1 1 0 0 1 -1-1v-68a1 1 0 0 1 1.707-.707l25.1 25.1a1 1 0 1 1 -1.414 1.414l-23.393-23.393v64.586h64.586l-21.773-21.773a1 1 0 1 1 1.414-1.414l23.48 23.48a1 1 0 0 1 -.707 1.707z"/><path d="m36.04 37.04a1 1 0 0 1 -.707-.293l-4.4-4.4a1 1 0 0 1 1.414-1.414l4.4 4.4a1 1 0 0 1 -.707 1.707z"/><path d="m46.375 61.517h-32.893a1 1 0 0 1 -1-1v-32.892a1 1 0 0 1 1.707-.707l32.893 32.892a1 1 0 0 1 -.707 1.707zm-31.893-2h29.479l-29.479-29.478z"/><path d="m13.188 72a1 1 0 0 1 -1-1v-2.8a1 1 0 0 1 2 0v2.8a1 1 0 0 1 -1 1z"/><path d="m21.55 72a1 1 0 0 1 -1-1v-4a1 1 0 0 1 2 0v4a1 1 0 0 1 -1 1z"/><path d="m29.912 72a1 1 0 0 1 -1-1v-2.8a1 1 0 0 1 2 0v2.8a1 1 0 0 1 -1 1z"/><path d="m38.275 72a1 1 0 0 1 -1-1v-4a1 1 0 0 1 2 0v4a1 1 0 0 1 -1 1z"/><path d="m46.638 72a1 1 0 0 1 -1-1v-2.8a1 1 0 0 1 2 0v2.8a1 1 0 0 1 -1 1z"/><path d="m55 72a1 1 0 0 1 -1-1v-4a1 1 0 0 1 2 0v4a1 1 0 0 1 -1 1z"/><path d="m5.8 59.859h-2.8a1 1 0 0 1 0-2h2.8a1 1 0 1 1 0 2z"/><path d="m7 51.5h-4a1 1 0 0 1 0-2h4a1 1 0 0 1 0 2z"/><path d="m5.8 43.134h-2.8a1 1 0 0 1 0-2h2.8a1 1 0 0 1 0 2z"/><path d="m7 34.772h-4a1 1 0 0 1 0-2h4a1 1 0 0 1 0 2z"/><path d="m5.8 26.409h-2.8a1 1 0 0 1 0-2h2.8a1 1 0 1 1 0 2z"/><path d="m7 18.047h-4a1 1 0 0 1 0-2h4a1 1 0 0 1 0 2z"/></svg>