<?xml version="1.0" encoding="UTF-8"?>
<svg xmlns="http://www.w3.org/2000/svg" id="Icons" viewBox="0 0 74 74" width="512" height="512"><path d="M37,72A35.005,35.005,0,0,1,26.233,3.688a35.341,35.341,0,0,1,21.536,0A34.91,34.91,0,0,1,67.316,19.5a34.447,34.447,0,0,1,3.675,9.143,1,1,0,1,1-1.943.474A32.434,32.434,0,0,0,65.585,20.5,32.917,32.917,0,0,0,47.153,5.592a33.325,33.325,0,0,0-20.3,0,33.01,33.01,0,0,0,0,62.817,33.325,33.325,0,0,0,20.3,0A32.92,32.92,0,0,0,65.584,53.5a32.443,32.443,0,0,0,3.464-8.617,1,1,0,1,1,1.943.474A34.456,34.456,0,0,1,67.315,54.5,34.944,34.944,0,0,1,37,72Z"/><path d="M70.851,41.12a.794.794,0,0,1-.1,0,1,1,0,0,1-.9-1.092c.1-.99.146-2.007.146-3.023s-.049-2.033-.146-3.023a1,1,0,0,1,1.991-.194c.1,1.054.155,2.136.155,3.217s-.052,2.163-.155,3.217A1,1,0,0,1,70.851,41.12Z"/><path d="M26.541,70.36A1,1,0,0,1,25.7,69.9C20.877,62.275,18,49.979,18,37s2.877-25.275,7.7-32.895a1,1,0,0,1,1.69,1.07C22.761,12.487,20,24.384,20,37s2.761,24.513,7.385,31.825a1,1,0,0,1-.844,1.535Z"/><path d="M47.459,70.36a1,1,0,0,1-.844-1.535C51.239,61.513,54,49.616,54,37S51.239,12.487,46.615,5.175a1,1,0,0,1,1.69-1.07C53.123,11.725,56,24.021,56,37S53.123,62.275,48.305,69.9A1,1,0,0,1,47.459,70.36Z"/><path d="M37,72a1,1,0,0,1-1-1V3a1,1,0,0,1,2,0V71A1,1,0,0,1,37,72Z"/><path d="M71,38H3a1,1,0,0,1,0-2H71a1,1,0,0,1,0,2Z"/><path d="M66.45,21H7.55a1,1,0,0,1,0-2h58.9a1,1,0,0,1,0,2Z"/><path d="M66.45,55H7.55a1,1,0,1,1,0-2h58.9a1,1,0,0,1,0,2Z"/></svg>
