<svg id="Icons" height="512" viewBox="0 0 74 74" width="512" xmlns="http://www.w3.org/2000/svg"><path d="m3.779 45.03a1 1 0 0 1 -.974-.78 32.494 32.494 0 0 1 -.8-6.687 1 1 0 0 1 .995-1.013h.01a1 1 0 0 1 1 .986 30.45 30.45 0 0 0 .746 6.274 1 1 0 0 1 -.756 1.195.979.979 0 0 1 -.221.025z"/><path d="m37 70.87c-.55 0-1.108-.011-1.647-.041a35.617 35.617 0 0 1 -24.848-11.692 1 1 0 1 1 1.495-1.337 33.612 33.612 0 0 0 23.46 11.027c.513.029 1.034.039 1.545.039a33.535 33.535 0 0 0 19.446-6.118 1.022 1.022 0 0 1 .1-.078 31.847 31.847 0 0 0 11.454-14.724 30.986 30.986 0 0 0 -.484-23.083c-.011-.027-.022-.054-.031-.082a32.671 32.671 0 0 0 -18.784-17.581 33.7 33.7 0 0 0 -11.706-2.07 33.362 33.362 0 0 0 -20.56 6.952 31.822 31.822 0 0 0 -10.55 14.281 30.623 30.623 0 0 0 -1.49 5.688 1 1 0 0 1 -1.974-.322 32.612 32.612 0 0 1 1.59-6.056 33.8 33.8 0 0 1 11.205-15.173 35.969 35.969 0 0 1 34.179-5.178 34.673 34.673 0 0 1 19.959 18.744.692.692 0 0 1 .033.086 32.988 32.988 0 0 1 .484 24.5 33.838 33.838 0 0 1 -12.076 15.585.919.919 0 0 1 -.1.078 35.515 35.515 0 0 1 -20.7 6.555z"/><path d="m8.141 55.38a1 1 0 0 1 -.84-.456 33.11 33.11 0 0 1 -2.96-5.724 1 1 0 0 1 1.859-.742 31.06 31.06 0 0 0 2.781 5.377 1 1 0 0 1 -.838 1.545z"/><path d="m35.408 70.83a1 1 0 0 1 -.579-1.816c33.532-23.756 13.549-61.895 13.343-62.278a1 1 0 1 1 1.762-.947c.213.4 21.01 40.091-13.949 64.857a1 1 0 0 1 -.577.184z"/><path d="m65.459 49.354c-40.25 0-61.044-22.425-61.259-22.654a1 1 0 0 1 1.482-1.343c.212.232 21.656 23.281 63.22 21.945a1 1 0 0 1 .065 2c-1.181.033-2.356.052-3.508.052z"/><path d="m54.8 40.965a1.009 1.009 0 0 1 -.109-.006c-12.766-1.4-19.875-14.966-20.171-15.542-7.434-13.006-18.5-13.131-18.683-13.131h-.008a1 1 0 0 1 -.006-2c.547-.007 12.4.092 20.454 14.177.089.17 6.893 13.125 18.494 14.492 1.453-.264 13.225-2.77 12.669-14.447a1 1 0 1 1 2-.095c.666 13.981-14.331 16.516-14.482 16.54a1.015 1.015 0 0 1 -.158.012z"/><path d="m57.12 64.5a1 1 0 0 1 -1-1c0-.094-.064-8.445-5.613-9.955-.024 0-5.2-.856-14.43 2.237-1.059.48-14.217 6.289-25.062 3.66a1 1 0 1 1 .47-1.943c10.408 2.519 23.675-3.499 23.807-3.558.032-.014.065-.027.1-.039 9.863-3.315 15.336-2.347 15.562-2.3 7.085 1.925 7.166 11.487 7.166 11.893a1 1 0 0 1 -1 1.005z"/></svg>