<svg id="Icons" height="512" viewBox="0 0 74 74" width="512" xmlns="http://www.w3.org/2000/svg"><path d="m40.879 72a4.884 4.884 0 0 1 -4.879-4.879v-16.988a1 1 0 0 1 2 0v16.988a2.879 2.879 0 1 0 5.757 0v-31.482a1 1 0 0 1 2 0v31.482a4.883 4.883 0 0 1 -4.878 4.879z"/><path d="m33.121 72a4.883 4.883 0 0 1 -4.878-4.879v-31.482a1 1 0 0 1 2 0v31.482a2.879 2.879 0 1 0 5.757 0v-16.988a1 1 0 0 1 2 0v16.988a4.884 4.884 0 0 1 -4.879 4.879z"/><path d="m48.03 49.87a4.278 4.278 0 0 1 -4.27-4.27v-9.96a1 1 0 0 1 2 0v9.96a2.223 2.223 0 0 0 .661 1.6 2.267 2.267 0 0 0 3.879-1.6v-14.01a8.019 8.019 0 0 0 -8.01-8.01h-10.58a7.955 7.955 0 0 0 -7.635 5.6 1 1 0 0 1 -1.909-.6 9.946 9.946 0 0 1 9.544-7h10.58a10.021 10.021 0 0 1 10.01 10.01v14.01a4.275 4.275 0 0 1 -4.27 4.27z"/><path d="m25.97 49.87a4.241 4.241 0 0 1 -3.017-1.253 4.2 4.2 0 0 1 -1.253-3.017v-.48a1 1 0 0 1 2 0v.48a2.221 2.221 0 0 0 .661 1.6 2.267 2.267 0 0 0 3.879-1.6v-9.96a1 1 0 0 1 2 0v9.96a4.274 4.274 0 0 1 -4.27 4.27z"/><path d="m22.7 41.12a1 1 0 0 1 -1-1v-6.24a1 1 0 0 1 2 0v6.24a1 1 0 0 1 -1 1z"/><path d="m37 18.933a8.467 8.467 0 1 1 8.467-8.466 8.477 8.477 0 0 1 -8.467 8.466zm0-14.933a6.467 6.467 0 1 0 6.467 6.467 6.474 6.474 0 0 0 -6.467-6.467z"/></svg>