<svg id="Icons" height="512" viewBox="0 0 74 74" width="512" xmlns="http://www.w3.org/2000/svg"><path d="m51.379 60.87a1 1 0 0 1 -.877-1.48l9.225-16.865-3.013-4.988a1 1 0 0 1 1.712-1.037l3.31 5.48a1 1 0 0 1 .021 1l-9.5 17.37a1 1 0 0 1 -.878.52z"/><path d="m49.161 24.12a1 1 0 0 1 -.857-.483l-3.22-5.33a1 1 0 0 1 1.716-1.034l3.22 5.33a1 1 0 0 1 -.855 1.517z"/><path d="m22.621 60.87a1 1 0 0 1 -.878-.52l-9.5-17.37a1 1 0 0 1 .021-1l23.88-39.5a1 1 0 0 1 .856-.48 1 1 0 0 1 .856.483l6.35 10.51a1 1 0 1 1 -1.712 1.034l-5.494-9.094-22.727 37.592 9.227 16.865a1 1 0 0 1 -.877 1.48z"/><path d="m54.981 33.73a1 1 0 0 1 -.856-.482l-3.23-5.33a1 1 0 0 1 1.71-1.036l3.23 5.33a1 1 0 0 1 -.337 1.373.988.988 0 0 1 -.517.145z"/><path d="m37 42.445a6.764 6.764 0 1 1 6.764-6.764 6.771 6.771 0 0 1 -6.764 6.764zm0-11.528a4.764 4.764 0 1 0 4.764 4.764 4.769 4.769 0 0 0 -4.764-4.764z"/><path d="m37 30.917a1 1 0 0 1 -1-1v-25.817a1 1 0 1 1 2 0v25.817a1 1 0 0 1 -1 1z"/><path d="m58.36 72h-42.72a1 1 0 0 1 -1-1v-5.265a6.869 6.869 0 0 1 6.86-6.862h31a6.869 6.869 0 0 1 6.862 6.862v5.265a1 1 0 0 1 -1.002 1zm-41.72-2h40.72v-4.265a4.867 4.867 0 0 0 -4.86-4.862h-31a4.867 4.867 0 0 0 -4.862 4.862z"/></svg>