<svg id="Icons" height="512" viewBox="0 0 74 74" width="512" xmlns="http://www.w3.org/2000/svg"><path d="m58.63 72h-43.26a1 1 0 0 1 -1-1v-58.36a1 1 0 0 1 1-1h9.56a1 1 0 0 1 0 2h-8.56v56.36h41.26v-7.27a1 1 0 0 1 2 0v8.27a1 1 0 0 1 -1 1z"/><path d="m58.63 47.5a1 1 0 0 1 -1-1v-6.23a1 1 0 0 1 2 0v6.23a1 1 0 0 1 -1 1z"/><path d="m58.63 36.27a1 1 0 0 1 -1-1v-21.63h-8.56a1 1 0 0 1 0-2h9.56a1 1 0 0 1 1 1v22.63a1 1 0 0 1 -1 1z"/><path d="m58.63 58.73a1 1 0 0 1 -1-1v-6.23a1 1 0 0 1 2 0v6.23a1 1 0 0 1 -1 1z"/><path d="m49.075 16.658h-24.15a1 1 0 0 1 -1-1v-6.037a1 1 0 0 1 1-1h6.375a1 1 0 0 1 0 2h-5.37v4.037h22.15v-4.037h-5.37a1 1 0 0 1 0-2h6.37a1 1 0 0 1 1 1v6.037a1 1 0 0 1 -1.005 1z"/><path d="m42.705 10.621a1 1 0 0 1 -1-1v-.916a4.705 4.705 0 1 0 -9.41 0v.916a1 1 0 1 1 -2 0v-.916a6.705 6.705 0 1 1 13.41 0v.916a1 1 0 0 1 -1 1z"/><path d="m51.5 28h-29a1 1 0 0 1 0-2h29a1 1 0 0 1 0 2z"/><path d="m51.5 36.5h-29a1 1 0 0 1 0-2h29a1 1 0 0 1 0 2z"/><path d="m51.5 45h-29a1 1 0 0 1 0-2h29a1 1 0 0 1 0 2z"/><path d="m51.5 53.5h-29a1 1 0 0 1 0-2h29a1 1 0 0 1 0 2z"/><path d="m51.5 62h-29a1 1 0 0 1 0-2h29a1 1 0 0 1 0 2z"/></svg>