<svg id="Icons" height="512" viewBox="0 0 74 74" width="512" xmlns="http://www.w3.org/2000/svg"><path d="m66.25 32.77a1 1 0 0 1 -1-1v-6.24a1 1 0 0 1 2 0v6.24a1 1 0 0 1 -1 1z"/><path d="m64.25 72h-21a3 3 0 0 1 -3-3v-64a3 3 0 0 1 3-3h21a3 3 0 0 1 3 3v15.53a1 1 0 0 1 -2 0v-15.53a1 1 0 0 0 -1-1h-21a1 1 0 0 0 -1 1v64a1 1 0 0 0 1 1h21a1 1 0 0 0 1-1v-21a1 1 0 0 1 2 0v21a3 3 0 0 1 -3 3z"/><path d="m66.25 44a1 1 0 0 1 -1-1v-6.23a1 1 0 0 1 2 0v6.23a1 1 0 0 1 -1 1z"/><path d="m30.75 72h-21a3 3 0 0 1 -3-3v-64a3 3 0 0 1 3-3h21a3 3 0 0 1 3 3v64a3 3 0 0 1 -3 3zm-21-68a1 1 0 0 0 -1 1v64a1 1 0 0 0 1 1h21a1 1 0 0 0 1-1v-64a1 1 0 0 0 -1-1z"/><path d="m66.25 62.25h-25a1 1 0 0 1 0-2h25a1 1 0 0 1 0 2z"/><path d="m32.75 55.5h-25a1 1 0 0 1 0-2h25a1 1 0 0 1 0 2z"/><path d="m66.25 55.5h-25a1 1 0 0 1 0-2h25a1 1 0 0 1 0 2z"/><path d="m66.25 13.75h-25a1 1 0 0 1 0-2h25a1 1 0 0 1 0 2z"/><path d="m32.75 13.75h-25a1 1 0 0 1 0-2h25a1 1 0 0 1 0 2z"/><path d="m32.75 62.25h-25a1 1 0 0 1 0-2h25a1 1 0 0 1 0 2z"/><path d="m58.25 46.125h-9a1 1 0 0 1 -1-1v-23a1 1 0 0 1 1-1h9a1 1 0 0 1 1 1v23a1 1 0 0 1 -1 1zm-8-2h7v-21h-7z"/><path d="m24.75 46.125h-9a1 1 0 0 1 -1-1v-23a1 1 0 0 1 1-1h9a1 1 0 0 1 1 1v23a1 1 0 0 1 -1 1zm-8-2h7v-21h-7z"/></svg>