<svg id="Icons" height="512" viewBox="0 0 74 74" width="512" xmlns="http://www.w3.org/2000/svg"><path d="m48.73 14.59h-6.23a1 1 0 0 1 0-2h6.23a1 1 0 0 1 0 2z"/><path d="m26.27 14.59h-23.27a1 1 0 0 1 0-2h23.27a1 1 0 0 1 0 2z"/><path d="m37.5 14.59h-6.23a1 1 0 0 1 0-2h6.23a1 1 0 0 1 0 2z"/><path d="m71 14.59h-17.27a1 1 0 0 1 0-2h17.27a1 1 0 0 1 0 2z"/><path d="m48.73 14.59h-6.23a1 1 0 0 1 0-2h6.23a1 1 0 0 1 0 2z"/><path d="m66.54 31.31h-59.08a1 1 0 0 1 -1-1v-16.72a1 1 0 0 1 1-1h18.81a1 1 0 0 1 0 2h-17.81v14.72h57.08v-14.72h-11.81a1 1 0 0 1 0-2h12.81a1 1 0 0 1 1 1v16.72a1 1 0 0 1 -1 1z"/><path d="m37.5 14.59h-6.23a1 1 0 0 1 0-2h6.23a1 1 0 0 1 0 2z"/><path d="m66.541 61.41a1 1 0 0 1 -1-1v-29.1h-57.082v29.1a1 1 0 0 1 -2 0v-30.1a1 1 0 0 1 1-1h59.082a1 1 0 0 1 1 1v30.1a1 1 0 0 1 -1 1z"/><path d="m38.672 61.41a1 1 0 0 1 -1-1v-30.1a1 1 0 1 1 2 0v30.1a1 1 0 0 1 -1 1z"/><path d="m66.541 43.086h-27.869a1 1 0 0 1 0-2h27.869a1 1 0 0 1 0 2z"/><path d="m66.541 54.721h-27.869a1 1 0 0 1 0-2h27.869a1 1 0 0 1 0 2z"/><path d="m54.418 37.2h-3.618a1 1 0 0 1 0-2h3.623a1 1 0 0 1 0 2z"/><path d="m54.418 48.9h-3.618a1 1 0 0 1 0-2h3.623a1 1 0 0 1 0 2z"/><path d="m42.25 22.951h-10.5a1 1 0 0 1 0-2h10.5a1 1 0 0 1 0 2z"/></svg>