<svg id="Icons" height="512" viewBox="0 0 74 74" width="512" xmlns="http://www.w3.org/2000/svg"><path d="m33.5 4h-6.23a1 1 0 0 1 0-2h6.23a1 1 0 0 1 0 2z"/><path d="m61.22 72h-48.44a1 1 0 0 1 -1-1v-17.76a1 1 0 0 1 .289-.7 22.786 22.786 0 0 0 6.411-15.97 22.893 22.893 0 0 0 -6.412-16 1 1 0 0 1 -.288-.7v-16.87a1 1 0 0 1 1-1h9.49a1 1 0 0 1 0 2h-8.49v15.465a24.948 24.948 0 0 1 6.7 17.105 24.838 24.838 0 0 1 -6.7 17.076v16.354h46.44v-16.354a25.147 25.147 0 0 1 0-34.181v-15.465h-10.49a1 1 0 0 1 0-2h11.49a1 1 0 0 1 1 1v16.87a1 1 0 0 1 -.288.7 23.126 23.126 0 0 0 0 31.965 1 1 0 0 1 .289.7v17.765a1 1 0 0 1 -1.001 1z"/><path d="m44.73 4h-6.23a1 1 0 0 1 0-2h6.23a1 1 0 0 1 0 2z"/><path d="m46.428 72h-18.828a1 1 0 0 1 -1-1v-46.36a10.413 10.413 0 0 1 20.825 0v46.36a1 1 0 0 1 -.997 1zm-17.828-2h16.828v-45.36a8.413 8.413 0 0 0 -16.825 0z"/><path d="m36.734 47.332a5.741 5.741 0 0 1 -4.072-1.684 5.765 5.765 0 1 1 4.072 1.684zm-2.658-3.1a3.759 3.759 0 1 0 0-5.316 3.765 3.765 0 0 0 0 5.316z"/><path d="m33.369 45.941a1 1 0 0 1 -.707-1.707l6.73-6.729a1 1 0 0 1 1.414 1.414l-6.73 6.729a1 1 0 0 1 -.707.293z"/></svg>