<svg id="Icons" height="512" viewBox="0 0 74 74" width="512" xmlns="http://www.w3.org/2000/svg"><path d="m47.73 52.38h-6.23a1 1 0 0 1 0-2h6.23a1 1 0 0 1 0 2z"/><path d="m25.27 52.38h-20.27a3 3 0 0 1 -3-3v-18a3 3 0 0 1 3-3h32.89a1 1 0 0 1 0 2h-32.89a1 1 0 0 0 -1 1v18a1 1 0 0 0 1 1h20.27a1 1 0 1 1 0 2z"/><path d="m36.5 52.38h-6.23a1 1 0 0 1 0-2h6.23a1 1 0 0 1 0 2z"/><path d="m69 52.38h-16.27a1 1 0 0 1 0-2h16.27a1 1 0 0 0 1-1v-18a1 1 0 0 0 -1-1h-3.39a1 1 0 0 1 0-2h3.39a3 3 0 0 1 3 3v18a3 3 0 0 1 -3 3z"/><path d="m51.749 46.375a15 15 0 1 1 15-15 15.017 15.017 0 0 1 -15 15zm0-28a13 13 0 1 0 13 13 13.015 13.015 0 0 0 -13-13z"/><path d="m51.749 41.375a10 10 0 1 1 10-10 10.011 10.011 0 0 1 -10 10zm0-18a8 8 0 1 0 8 8 8.009 8.009 0 0 0 -8-8z"/><path d="m27.375 36.406h-17.875a1 1 0 0 1 0-2h17.875a1 1 0 0 1 0 2z"/><path d="m27.375 41.375h-17.875a1 1 0 0 1 0-2h17.875a1 1 0 0 1 0 2z"/><path d="m27.375 46.344h-17.875a1 1 0 0 1 0-2h17.875a1 1 0 0 1 0 2z"/><path d="m64 57.625h-6.458a2 2 0 0 1 -2-2v-4.25a1 1 0 0 1 1-1h8.458a1 1 0 0 1 1 1v4.25a2 2 0 0 1 -2 2zm-6.458-5.25v3.25h6.458v-3.25z"/><path d="m16.458 57.625h-6.458a2 2 0 0 1 -2-2v-4.25a1 1 0 0 1 1-1h8.458a1 1 0 0 1 1 1v4.25a2 2 0 0 1 -2 2zm-6.458-5.25v3.25h6.458v-3.25z"/></svg>