<svg id="Icons" height="512" viewBox="0 0 74 74" width="512" xmlns="http://www.w3.org/2000/svg"><path d="m37.38 64.84a1 1 0 0 1 -.707-1.708l32.84-32.832a1.54 1.54 0 0 0 0-2.176l-23.68-23.677a1.578 1.578 0 0 0 -2.175 0l-2.389 2.4a1 1 0 1 1 -1.417-1.411l2.39-2.4a3.622 3.622 0 0 1 5.005 0l23.68 23.68a3.542 3.542 0 0 1 0 5l-32.841 32.831a1 1 0 0 1 -.706.293z"/><path d="m24.67 23.02a1 1 0 0 1 -.707-1.707l4.41-4.41a1 1 0 0 1 1.414 1.414l-4.41 4.41a1 1 0 0 1 -.707.293z"/><path d="m16.92 64.84a1 1 0 0 1 -.707-.293l-11.65-11.639a8.662 8.662 0 0 1 0-12.193l15.87-15.862a1 1 0 1 1 1.414 1.415l-15.87 15.859a6.655 6.655 0 0 0 0 9.367l11.65 11.638a1 1 0 0 1 -.707 1.708z"/><path d="m32.62 15.08a1 1 0 0 1 -.707-1.707l4.41-4.41a1 1 0 0 1 1.414 1.414l-4.41 4.41a1 1 0 0 1 -.707.293z"/><path d="m65.129 64.838h-48.213a1 1 0 0 1 0-2h48.213a1 1 0 1 1 0 2z"/><path d="m44.194 58.043a.993.993 0 0 1 -.707-.293l-27.266-27.266a1 1 0 0 1 1.414-1.414l27.265 27.266a1 1 0 0 1 -.707 1.707z"/><path d="m60.054 72h-20.3a1 1 0 0 1 0-2h20.3a1 1 0 0 1 0 2z"/></svg>