<svg id="Icons" height="512" viewBox="0 0 74 74" width="512" xmlns="http://www.w3.org/2000/svg"><path d="m29 59.8h-6.23a1 1 0 1 1 0-2h6.23a1 1 0 0 1 0 2z"/><path d="m60.91 59.8h-15.68a1 1 0 0 1 0-2h15.68a6.007 6.007 0 0 0 6-6v-11.64h-59.82v11.64a6.007 6.007 0 0 0 6 6h4.68a1 1 0 0 1 0 2h-4.68a8.009 8.009 0 0 1 -8-8v-12.64a1 1 0 0 1 1-1h61.82a1 1 0 0 1 1 1v12.64a8.009 8.009 0 0 1 -8 8z"/><path d="m40.23 59.8h-6.23a1 1 0 0 1 0-2h6.23a1 1 0 1 1 0 2z"/><path d="m67.909 33.638h-61.818a1 1 0 0 1 -1-1v-4.538a8.009 8.009 0 0 1 8-8h47.818a8.009 8.009 0 0 1 8 8v4.536a1 1 0 0 1 -1 1.002zm-60.818-2h59.818v-3.538a6.006 6.006 0 0 0 -6-6h-47.818a6.006 6.006 0 0 0 -6 6z"/><path d="m69.97 40.163h-65.94a2.033 2.033 0 0 1 -2.03-2.03v-4.465a2.032 2.032 0 0 1 2.03-2.03h65.94a2.032 2.032 0 0 1 2.03 2.03v4.465a2.033 2.033 0 0 1 -2.03 2.03zm-65.94-6.525-.03.03v4.465l65.97.03.03-4.495z"/><path d="m46 22.1h-18a1 1 0 0 1 -1-1v-3.9a3 3 0 0 1 3-3h14a3 3 0 0 1 3 3v3.9a1 1 0 0 1 -1 1zm-17-2h16v-2.9a1 1 0 0 0 -1-1h-14a1 1 0 0 0 -1 1z"/></svg>