<svg id="Icons" height="512" viewBox="0 0 74 74" width="512" xmlns="http://www.w3.org/2000/svg"><path d="m50.089 46.05a1 1 0 0 1 -.81-1.585l3.65-5.06a1 1 0 0 1 1.622 1.17l-3.65 5.06a1 1 0 0 1 -.812.415z"/><path d="m23.779 58.95a1 1 0 0 1 -.943-.668l-7.25-20.647-13.143-8.814a1 1 0 0 1 .384-1.816l68-11.94a1 1 0 0 1 .985 1.569l-7.76 10.766a1 1 0 1 1 -1.623-1.169l6.322-8.775-63.128 11.089 11.354 7.615a1 1 0 0 1 .386.5l5.446 15.508.051-10.112a1 1 0 0 1 1.55-.83l18.449 12.152 3.5-4.853a1 1 0 1 1 1.622 1.17l-4.06 5.63a1 1 0 0 1 -1.361.25l-17.709-11.665-.071 14.045a1 1 0 0 1 -.835.982 1.032 1.032 0 0 1 -.166.013z"/><path d="m56.669 36.93a1 1 0 0 1 -.811-1.584l3.64-5.06a1 1 0 0 1 1.624 1.168l-3.64 5.06a1 1 0 0 1 -.813.416z"/><path d="m23.864 43.063a1 1 0 0 1 -.484-1.875l34.46-19.016-41.065 15.755a1 1 0 1 1 -.717-1.867l54.584-20.941a1 1 0 0 1 .841 1.809l-47.137 26.011a1 1 0 0 1 -.482.124z"/><path d="m23.785 58.946a1 1 0 0 1 -.636-1.773l10.761-8.847a1 1 0 1 1 1.271 1.545l-10.762 8.847a1 1 0 0 1 -.634.228z"/></svg>