<svg id="Icons" height="512" viewBox="0 0 74 74" width="512" xmlns="http://www.w3.org/2000/svg"><path d="m25.622 49.125a1 1 0 0 1 -.707-1.707l4.7-4.7a1 1 0 0 1 1.414 1.414l-4.7 4.7a1 1 0 0 1 -.707.293z"/><path d="m47.244 51.4c-.4 0-.8-.01-1.2-.03a1 1 0 1 1 .1-2 22.113 22.113 0 0 0 6.179-.565 1 1 0 1 1 .459 1.946 24.089 24.089 0 0 1 -5.538.649z"/><path d="m40.35 50.411a1.021 1.021 0 0 1 -.286-.042 24.83 24.83 0 1 1 27.153-9.147 1 1 0 0 1 -1.617-1.184 22.938 22.938 0 0 0 -2.291-29.6 22.826 22.826 0 1 0 -22.674 38.014 1 1 0 0 1 -.285 1.959z"/><path d="m57.29 49.15a1 1 0 0 1 -.349-1.941 22.2 22.2 0 0 0 5.037-3.267 1 1 0 0 1 1.3 1.516 24.176 24.176 0 0 1 -5.57 3.6 1.006 1.006 0 0 1 -.418.092z"/><path d="m47.173 45.46a18.766 18.766 0 0 1 -13.36-5.525 18.914 18.914 0 1 1 13.36 5.525zm0-35.77a16.893 16.893 0 0 0 -11.945 28.831 16.893 16.893 0 1 0 11.944-28.831z"/><path d="m8.758 72.252a6.758 6.758 0 0 1 -4.779-11.536l17.121-17.116a1.029 1.029 0 0 1 1.414 0l8.142 8.142a1 1 0 0 1 0 1.414l-17.12 17.117a6.713 6.713 0 0 1 -4.778 1.979zm13.042-26.531-16.406 16.409a4.758 4.758 0 0 0 6.728 6.729l16.409-16.41z"/><path d="m25.541 57.851a1 1 0 0 1 -.707-.293l-8.141-8.141a1 1 0 1 1 1.414-1.417l8.141 8.141a1 1 0 0 1 -.707 1.707z"/></svg>