<svg id="Icons" height="512" viewBox="0 0 74 74" width="512" xmlns="http://www.w3.org/2000/svg"><path d="m60.5 54.2a1 1 0 0 1 -1-1v-6.24a1 1 0 0 1 2 0v6.24a1 1 0 0 1 -1 1z"/><path d="m57.5 72h-41a4 4 0 0 1 -4-4v-62a4 4 0 0 1 4-4h41a4 4 0 0 1 4 4v24.73a1 1 0 1 1 -2 0v-24.73a2 2 0 0 0 -2-2h-41a2 2 0 0 0 -2 2v62a2 2 0 0 0 2 2h41a2 2 0 0 0 2-2v-9.8a1 1 0 0 1 2 0v9.8a4 4 0 0 1 -4 4z"/><path d="m60.5 42.96a1 1 0 0 1 -1-1v-6.23a1 1 0 1 1 2 0v6.23a1 1 0 0 1 -1 1z"/><path d="m53.5 22.25h-33a2 2 0 0 1 -2-2v-9a2 2 0 0 1 2-2h33a2 2 0 0 1 2 2v9a2 2 0 0 1 -2 2zm-33-11v9h33v-9z"/><path d="m26 37.25h-5.5a2 2 0 0 1 -2-2v-5.5a2 2 0 0 1 2-2h5.5a2 2 0 0 1 2 2v5.5a2 2 0 0 1 -2 2zm-5.5-7.5v5.5h5.5v-5.5z"/><path d="m26 51h-5.5a2 2 0 0 1 -2-2v-5.5a2 2 0 0 1 2-2h5.5a2 2 0 0 1 2 2v5.5a2 2 0 0 1 -2 2zm-5.5-7.5v5.5h5.5v-5.5z"/><path d="m53.5 37.25h-5.5a2 2 0 0 1 -2-2v-5.5a2 2 0 0 1 2-2h5.5a2 2 0 0 1 2 2v5.5a2 2 0 0 1 -2 2zm-5.5-7.5v5.5h5.5v-5.5z"/><path d="m39.75 37.25h-5.5a2 2 0 0 1 -2-2v-5.5a2 2 0 0 1 2-2h5.5a2 2 0 0 1 2 2v5.5a2 2 0 0 1 -2 2zm-5.5-7.5v5.5h5.5v-5.5z"/><path d="m39.75 51h-5.5a2 2 0 0 1 -2-2v-5.5a2 2 0 0 1 2-2h5.5a2 2 0 0 1 2 2v5.5a2 2 0 0 1 -2 2zm-5.5-7.5v5.5h5.5v-5.5z"/><path d="m53.5 64.75h-5.5a2 2 0 0 1 -2-2v-19.25a2 2 0 0 1 2-2h5.5a2 2 0 0 1 2 2v19.25a2 2 0 0 1 -2 2zm0-21.251h-5.5v19.251h5.5z"/><path d="m39.75 64.75h-5.5a2 2 0 0 1 -2-2v-5.5a2 2 0 0 1 2-2h5.5a2 2 0 0 1 2 2v5.5a2 2 0 0 1 -2 2zm-5.5-7.5v5.5h5.5v-5.5z"/><path d="m26 64.75h-5.5a2 2 0 0 1 -2-2v-5.5a2 2 0 0 1 2-2h5.5a2 2 0 0 1 2 2v5.5a2 2 0 0 1 -2 2zm-5.5-7.5v5.5h5.5v-5.5z"/></svg>