<svg id="Icons" height="512" viewBox="0 0 74 74" width="512" xmlns="http://www.w3.org/2000/svg"><path d="m20.09 65.9a1 1 0 0 1 -.689-.275 23.194 23.194 0 0 1 -4.189-5.319 1 1 0 1 1 1.736-.992 21.226 21.226 0 0 0 3.83 4.86 1 1 0 0 1 -.688 1.726z"/><path d="m13.841 44.17a1 1 0 0 1 -.97-1.246 23.005 23.005 0 0 1 5.529-10.069 1 1 0 0 1 1.457 1.37 21.019 21.019 0 0 0 -5.049 9.191 1 1 0 0 1 -.967.754z"/><path d="m14.09 56.221a1 1 0 0 1 -.957-.711 23.234 23.234 0 0 1 -1-6.635 1 1 0 0 1 .995-1.005h.005a1 1 0 0 1 1 1 21.189 21.189 0 0 0 .917 6.064 1 1 0 0 1 -.667 1.247.977.977 0 0 1 -.293.04z"/><path d="m35.4 72a23.066 23.066 0 0 1 -7.4-1.2 22.647 22.647 0 0 1 -3.636-1.577 1 1 0 0 1 .951-1.76 20.536 20.536 0 0 0 3.319 1.44 21.28 21.28 0 0 0 27.766-16.847 20.028 20.028 0 0 0 .269-3.326 21.093 21.093 0 0 0 -5.729-14.5 1 1 0 0 1 1.457-1.37 23.092 23.092 0 0 1 6.273 15.87 22.039 22.039 0 0 1 -.294 3.646 23.236 23.236 0 0 1 -16.739 18.768 22.834 22.834 0 0 1 -6.237.856z"/><path d="m53.06 34.538h-35.316a1 1 0 0 1 -1-1v-13.863a1 1 0 1 1 2 0v12.863h33.316v-12.863a1 1 0 1 1 2 0v13.863a1 1 0 0 1 -1 1z"/><path d="m35.4 27.392a1.009 1.009 0 0 1 -.355-.065l-27.752-10.553a1 1 0 0 1 -.064-1.842l27.752-12.84a1 1 0 0 1 .84 0l27.727 12.84a1 1 0 0 1 -.065 1.842l-27.726 10.553a1.014 1.014 0 0 1 -.357.065zm-25.175-11.643 25.175 9.573 25.153-9.573-25.153-11.649z"/><path d="m63.128 27.918a1 1 0 0 1 -1-1v-11.079a1 1 0 1 1 2 0v11.079a1 1 0 0 1 -1 1z"/><path d="m66.352 34.538h-6.452a1 1 0 0 1 -.985-1.171l.792-4.573a3.468 3.468 0 0 1 6.835 0l.792 4.573a1 1 0 0 1 -.985 1.171zm-5.26-2h4.071l-.589-3.4a1.468 1.468 0 0 0 -2.893 0z"/><path d="m57.394 53.207a1 1 0 0 1 -.737-.324l-3.845-4.183a5.788 5.788 0 0 0 -5.856-1.625l-4.276 1.257a2.87 2.87 0 0 1 -2.868-.746l-2.607-2.664a2.869 2.869 0 0 1 -.781-1.54l-.56-3.388a2.875 2.875 0 0 1 .846-2.543l4.827-4.634a1 1 0 1 1 1.385 1.442l-4.822 4.635a.876.876 0 0 0 -.258.774l.559 3.386a.891.891 0 0 0 .239.47l2.606 2.663a.877.877 0 0 0 .872.227l4.277-1.262a7.788 7.788 0 0 1 7.894 2.19l3.846 4.189a1 1 0 0 1 -.736 1.676z"/><path d="m41.37 71.183a1 1 0 0 1 -.995-.911l-.243-2.719-3.041-2.812a1 1 0 0 1 -.3-.534l-1.26-6.149a1 1 0 0 1 .359-.985l5.843-4.626a1.022 1.022 0 0 1 .781-.2l7.229 1.164a1 1 0 0 1 .788.668 10.322 10.322 0 0 0 4.345 5.379 1 1 0 0 1 -.942 1.764 12.179 12.179 0 0 1 -5.087-5.93l-6.217-1-5.017 3.968 1.072 5.231 3.087 2.855a1 1 0 0 1 .318.646l.277 3.1a1 1 0 0 1 -.907 1.085c-.03.005-.06.006-.09.006z"/><path d="m28.325 70.851a1 1 0 0 1 -1-1v-6.246a2.382 2.382 0 0 0 -.43-1.37l-.7-1a4.4 4.4 0 0 1 -.647-3.622l.605-2.321a1.3 1.3 0 0 0 .04-.418l-.221-3.495a1.28 1.28 0 0 0 -.06-.317l-.226-.712a1.325 1.325 0 0 0 -1.266-.925h-.58a3.217 3.217 0 0 1 -2.724-1.493l-2.559-4.012a1.256 1.256 0 0 0 -.478-.434l-3.865-1.981a1 1 0 1 1 .912-1.78l3.866 1.982a3.234 3.234 0 0 1 1.249 1.135l2.559 4.015a1.226 1.226 0 0 0 1.038.569h.58a3.317 3.317 0 0 1 3.171 2.317l.225.709a3.277 3.277 0 0 1 .152.8l.221 3.493a3.314 3.314 0 0 1 -.1 1.051l-.606 2.32a2.4 2.4 0 0 0 .353 1.973l.7 1a4.374 4.374 0 0 1 .79 2.514v6.246a1 1 0 0 1 -.999 1.002z"/></svg>