<svg id="Icons" height="512" viewBox="0 0 74 74" width="512" xmlns="http://www.w3.org/2000/svg"><path d="m37 72a1 1 0 0 1 -.8-.4c-.045-.06-4.524-6.028-9.421-13.914a1 1 0 0 1 1.7-1.055c3.63 5.848 7.021 10.624 8.521 12.68 3.98-5.49 21.461-30.37 21.461-43.851a21.46 21.46 0 0 0 -42.92 0c0 4.2 1.717 9.939 5.1 17.061a1 1 0 1 1 -1.807.858c-3.515-7.392-5.3-13.421-5.3-17.919a23.46 23.46 0 0 1 46.92 0c0 15.8-21.735 44.909-22.66 46.141a1 1 0 0 1 -.8.4z"/><path d="m25.041 53.86a1 1 0 0 1 -.865-.5c-1.146-1.969-2.147-3.763-3.06-5.485a1 1 0 0 1 1.768-.936c.9 1.7 1.887 3.469 3.02 5.415a1 1 0 0 1 -.863 1.5z"/><path d="m37 42.625a16.813 16.813 0 1 1 16.81-16.812 16.831 16.831 0 0 1 -16.81 16.812zm0-31.625a14.813 14.813 0 1 0 14.81 14.813 14.829 14.829 0 0 0 -14.81-14.813z"/><path d="m31.5 41.64a1 1 0 0 1 -1-1v-10.89a1 1 0 0 1 1-1h11a1 1 0 0 1 1 1v10.88a1 1 0 0 1 -2 0v-9.88h-9v9.89a1 1 0 0 1 -1 1z"/><path d="m42.5 30.75h-11a1 1 0 0 1 -.9-1.442l5.5-11.166a1.041 1.041 0 0 1 1.794 0l5.5 11.166a1 1 0 0 1 -.9 1.442zm-9.393-2h7.786l-3.893-7.903z"/><path d="m37 42.625a1 1 0 0 1 -1-1v-11.875a1 1 0 0 1 2 0v11.875a1 1 0 0 1 -1 1z"/></svg>