<?xml version="1.0" encoding="UTF-8"?>
<svg xmlns="http://www.w3.org/2000/svg" id="Icons" viewBox="0 0 74 74" width="512" height="512"><path d="M3,42.65a1,1,0,0,1-1-1V38a1,1,0,0,1,2,0v3.65A1,1,0,0,1,3,42.65Z"/><path d="M20,55.5H6a4,4,0,0,1-4-4V46.8a1,1,0,0,1,2,0v4.7a2,2,0,0,0,2,2H20a1,1,0,0,1,0,2Z"/><path d="M68,55.5H54a1,1,0,0,1,0-2H68a2,2,0,0,0,2-2v-22a2,2,0,0,0-2-2H6a2,2,0,0,0-2,2v3.3a1,1,0,0,1-2,0V29.5a4,4,0,0,1,4-4H68a4,4,0,0,1,4,4v22A4,4,0,0,1,68,55.5Z"/><path d="M62.5,38A3.5,3.5,0,1,1,66,34.5,3.5,3.5,0,0,1,62.5,38Zm0-5A1.5,1.5,0,1,0,64,34.5,1.5,1.5,0,0,0,62.5,33Z"/><path d="M53,38a3.5,3.5,0,1,1,3.5-3.5A3.5,3.5,0,0,1,53,38Zm0-5a1.5,1.5,0,1,0,1.5,1.5A1.5,1.5,0,0,0,53,33Z"/><path d="M54,72H20a1,1,0,0,1-1-1V47a1,1,0,0,1,1-1H54a1,1,0,0,1,1,1V71A1,1,0,0,1,54,72ZM21,70H53V48H21Z"/><path d="M59,48H15a1,1,0,0,1,0-2H59a1,1,0,0,1,0,2Z"/><path d="M54,27.5H20a1,1,0,0,1-1-1V3a1,1,0,0,1,1-1H44a1,1,0,0,1,.707.293l10,10A1,1,0,0,1,55,13V26.5A1,1,0,0,1,54,27.5Zm-33-2H53V13.414L43.586,4H21Z"/><path d="M54,14H44a1,1,0,0,1-1-1V3a1,1,0,0,1,2,0v9h9a1,1,0,0,1,0,2Z"/><path d="M48,54.5H26a1,1,0,0,1,0-2H48a1,1,0,0,1,0,2Z"/><path d="M48,60H26a1,1,0,0,1,0-2H48a1,1,0,0,1,0,2Z"/><path d="M48,65.5H26a1,1,0,0,1,0-2H48a1,1,0,0,1,0,2Z"/></svg>
