<svg id="Icons" height="512" viewBox="0 0 74 74" width="512" xmlns="http://www.w3.org/2000/svg"><path d="m15.377 72a1 1 0 0 1 -1-1.079l1.349-16.971a1 1 0 0 1 1.5-.784l12.8 7.5a1 1 0 0 1 .052 1.693l-14.144 9.472a1 1 0 0 1 -.557.169zm2.217-16.3-1.056 13.32 11.1-7.437z"/><path d="m29.679 32.9a1 1 0 0 1 -.862-1.506l2-3.41a1 1 0 0 1 1.726 1.016l-2 3.41a1 1 0 0 1 -.864.49z"/><path d="m29.52 62.53a1 1 0 0 1 -.5-.137l-12.8-7.5a1 1 0 0 1 -.358-1.369l4.9-8.369a1 1 0 1 1 1.726 1.011l-4.395 7.506 11.075 6.49 26.54-45.318a.806.806 0 0 0 -.286-1.107l-9.666-5.663a.814.814 0 0 0 -1.123.292l-9.061 15.461a1 1 0 1 1 -1.724-1.014l9.059-15.459a2.817 2.817 0 0 1 3.859-1.007l9.661 5.661a2.8 2.8 0 0 1 1 3.852l-27.044 46.175a1 1 0 0 1 -.611.463 1.03 1.03 0 0 1 -.252.032z"/><path d="m24.659 41.49a1 1 0 0 1 -.863-1.5l1.99-3.41a1 1 0 1 1 1.728 1.008l-1.99 3.41a1 1 0 0 1 -.865.492z"/><path d="m49.5 28.413a.982.982 0 0 1 -.5-.138l-12.8-7.5a1 1 0 0 1 1.01-1.726l12.8 7.5a1 1 0 0 1 -.506 1.863z"/><path d="m54.169 12.841a1 1 0 0 1 -.5-.137l-6.169-3.611a1 1 0 0 1 -.357-1.368l3.065-5.225a1 1 0 0 1 1.368-.358l6.164 3.606a1 1 0 0 1 .36 1.368l-3.064 5.231a1 1 0 0 1 -.867.494zm-4.794-4.968 4.438 2.6 2.053-3.505-4.438-2.6z"/><path d="m48.871 42.086a1 1 0 0 1 -.862-1.5l.56-.957a32.67 32.67 0 0 0 2.06-4.4 17.923 17.923 0 0 1 2.893-4.862l3.553-4.267a2.358 2.358 0 0 0 -.619-3.545l-3.056-1.79a1 1 0 0 1 1.011-1.726l3.057 1.791a4.358 4.358 0 0 1 1.144 6.551l-3.553 4.262a15.94 15.94 0 0 0 -2.571 4.32 34.242 34.242 0 0 1 -2.188 4.671l-.561.957a1 1 0 0 1 -.868.495z"/></svg>