<svg id="Icons" height="512" viewBox="0 0 74 74" width="512" xmlns="http://www.w3.org/2000/svg"><path d="m51.1 68.5h-28.171a1 1 0 0 1 -1-1v-46.173a1 1 0 0 1 .274-.688l14.071-14.828a1 1 0 0 1 .726-.311 1 1 0 0 1 .725.311l14.1 14.827a1 1 0 0 1 .275.689v46.173a1 1 0 0 1 -1 1zm-27.172-2h26.172v-44.773l-13.1-13.775-13.071 13.774z"/><path d="m70.4 68.5h-19.3a1 1 0 0 1 -1-1v-29.86a1 1 0 0 1 .248-.659l9.659-11.03a1 1 0 0 1 .753-.341 1 1 0 0 1 .753.342l9.64 11.03a1 1 0 0 1 .247.658v8.62a1 1 0 0 1 -2 0v-8.244l-8.641-9.888-8.659 9.888v28.484h17.3v-4.29a1 1 0 0 1 2 0v5.29a1 1 0 0 1 -1 1z"/><path d="m70.4 57.21a1 1 0 0 1 -1-1v-3.95a1 1 0 1 1 2 0v3.95a1 1 0 0 1 -1 1z"/><path d="m70.4 38.638h-19.3a1 1 0 0 1 0-2h19.3a1 1 0 0 1 0 2z"/><path d="m22.9 68.5h-19.3a1 1 0 0 1 -1-1v-29.862a1 1 0 0 1 .247-.659l9.637-11.023a1 1 0 0 1 .753-.342 1 1 0 0 1 .752.341l9.659 11.024a1 1 0 0 1 .248.659v29.862a1 1 0 0 1 -.996 1zm-18.3-2h17.3v-28.486l-8.658-9.881-8.642 9.88z"/><path d="m22.9 38.638h-19.3a1 1 0 0 1 0-2h19.3a1 1 0 0 1 0 2z"/><path d="m62.777 51.129h-4.055a2 2 0 0 1 -2-2v-4.055a2 2 0 0 1 2-2h4.055a2 2 0 0 1 2 2v4.055a2 2 0 0 1 -2 2zm-4.055-6.055v4.055h4.055v-4.055z"/><path d="m62.777 62.289h-4.055a2 2 0 0 1 -2-2v-4.055a2 2 0 0 1 2-2h4.055a2 2 0 0 1 2 2v4.055a2 2 0 0 1 -2 2zm-4.055-6.055v4.055h4.055v-4.055z"/><path d="m15.278 51.129h-4.055a2 2 0 0 1 -2-2v-4.055a2 2 0 0 1 2-2h4.055a2 2 0 0 1 2 2v4.055a2 2 0 0 1 -2 2zm0-6.056h-4.055v4.055h4.055z"/><path d="m15.278 62.289h-4.055a2 2 0 0 1 -2-2v-4.055a2 2 0 0 1 2-2h4.055a2 2 0 0 1 2 2v4.055a2 2 0 0 1 -2 2zm0-6.057h-4.055v4.055h4.055z"/><path d="m41.345 68.5h-8.66a1 1 0 0 1 -1-1v-10.586a1 1 0 0 1 1-1h8.66a1 1 0 0 1 1 1v10.586a1 1 0 0 1 -1 1zm-7.66-2h6.66v-8.586h-6.66z"/><path d="m45.211 51.527h-4.054a2 2 0 0 1 -2-2v-4.054a2 2 0 0 1 2-2h4.054a2 2 0 0 1 2 2v4.054a2 2 0 0 1 -2 2zm0-6.056h-4.054v4.054h4.054z"/><path d="m32.606 51.527h-4.054a2 2 0 0 1 -2-2v-4.054a2 2 0 0 1 2-2h4.054a2 2 0 0 1 2 2v4.054a2 2 0 0 1 -2 2zm0-6.056h-4.054v4.054h4.054z"/><path d="m45.211 39.283h-4.054a2 2 0 0 1 -2-2v-4.055a2 2 0 0 1 2-2h4.054a2 2 0 0 1 2 2v4.055a2 2 0 0 1 -2 2zm0-6.056h-4.054v4.055h4.054z"/><path d="m32.606 39.283h-4.054a2 2 0 0 1 -2-2v-4.055a2 2 0 0 1 2-2h4.054a2 2 0 0 1 2 2v4.055a2 2 0 0 1 -2 2zm0-6.056h-4.054v4.055h4.054z"/><path d="m51.1 26.158h-28.171a1 1 0 0 1 0-2h28.171a1 1 0 0 1 0 2z"/><path d="m60.76 27.614a1 1 0 0 1 -1-1v-13.751a1 1 0 1 1 2 0v13.751a1 1 0 0 1 -1 1z"/><path d="m71 22.327h-10.24a1 1 0 0 1 -1-1v-8.464a1 1 0 0 1 1-1h10.24a1 1 0 0 1 .819 1.574l-2.563 3.663 2.563 3.658a1 1 0 0 1 -.819 1.569zm-9.24-2h7.318l-1.862-2.659a1 1 0 0 1 0-1.147l1.862-2.658h-7.318z"/><path d="m13.24 27.614a1 1 0 0 1 -1-1v-13.751a1 1 0 0 1 2 0v13.751a1 1 0 0 1 -1 1z"/><path d="m13.24 22.327h-10.24a1 1 0 0 1 -.819-1.574l2.563-3.653-2.563-3.663a1 1 0 0 1 .819-1.574h10.24a1 1 0 0 1 1 1v8.464a1 1 0 0 1 -1 1zm-8.318-2h7.318v-6.464h-7.318l1.862 2.658a1 1 0 0 1 0 1.147z"/></svg>