<svg id="Icons" height="512" viewBox="0 0 74 74" width="512" xmlns="http://www.w3.org/2000/svg"><path d="m47.29 57.1a1 1 0 0 1 -1-1v-1.95a.971.971 0 0 1 .007-.121c.629-5.153 3.069-8.72 7.072-13.14a22.068 22.068 0 0 0 -16.79-36.879h-.019a1 1 0 0 1 -.019-2 24.062 24.062 0 0 1 18.31 40.222c-3.717 4.1-5.985 7.385-6.561 11.979v1.889a1 1 0 0 1 -1 1z"/><path d="m17.069 15.51a1 1 0 0 1 -.863-1.5 24.306 24.306 0 0 1 4.161-5.277 1 1 0 1 1 1.386 1.442 22.255 22.255 0 0 0 -3.819 4.843 1 1 0 0 1 -.865.492z"/><path d="m26.71 57.1a1 1 0 0 1 -1-1v-1.887c-.6-4.608-2.87-7.893-6.591-12a24 24 0 0 1 -6.209-16.6 23.332 23.332 0 0 1 .923-6.087 1 1 0 0 1 1.967.247v.01a1 1 0 0 1 -.041.282 21.322 21.322 0 0 0 -.849 5.588 22 22 0 0 0 5.69 15.217c4 4.422 6.451 7.992 7.1 13.155a.865.865 0 0 1 .008.125v1.95a1 1 0 0 1 -.998 1z"/><path d="m25.021 7.4a1 1 0 0 1 -.53-1.848 23.038 23.038 0 0 1 6.146-2.687 1 1 0 0 1 .526 1.93 21.043 21.043 0 0 0 -5.614 2.453.99.99 0 0 1 -.528.152z"/><path d="m49.988 63.061h-25.978a2.127 2.127 0 0 1 -2.125-2.124v-3.711a2.127 2.127 0 0 1 2.125-2.126h25.978a2.127 2.127 0 0 1 2.125 2.124v3.711a2.127 2.127 0 0 1 -2.125 2.126zm-25.978-5.961a.125.125 0 0 0 -.125.124v3.711a.125.125 0 0 0 .125.124h25.978a.125.125 0 0 0 .125-.124v-3.709a.125.125 0 0 0 -.125-.124z"/><path d="m37 72a9.108 9.108 0 0 1 -9.1-9.1v-.841a1 1 0 0 1 1-1h16.2a1 1 0 0 1 1 1v.841a9.108 9.108 0 0 1 -9.1 9.1zm-7.1-8.939a7.1 7.1 0 0 0 14.191 0z"/><path d="m37 57.1a1 1 0 0 1 -1-1v-15.67a1 1 0 0 1 2 0v15.67a1 1 0 0 1 -1 1z"/><path d="m37 41.428a.993.993 0 0 1 -.707-.293l-10.428-10.428a1 1 0 0 1 1.414-1.414l9.721 9.721 9.721-9.721a1 1 0 0 1 1.414 1.414l-10.428 10.428a.993.993 0 0 1 -.707.293z"/></svg>