<svg id="Icons" height="512" viewBox="0 0 74 74" width="512" xmlns="http://www.w3.org/2000/svg"><path d="m34.12 33.25h-3.95a1 1 0 0 1 0-2h3.95a1 1 0 1 1 0 2z"/><path d="m70 33.25h-19.93a1 1 0 1 1 0-2h19.93v-8h-66v8h20.17a1 1 0 0 1 0 2h-20.17a2 2 0 0 1 -2-2v-8a2 2 0 0 1 2-2h66a2 2 0 0 1 2 2v8a2 2 0 0 1 -2 2z"/><path d="m44.07 33.25h-3.95a1 1 0 0 1 0-2h3.95a1 1 0 0 1 0 2z"/><path d="m64 68.25h-6a1 1 0 0 1 -1-1v-35a1 1 0 0 1 1-1h6a1 1 0 0 1 1 1v35a1 1 0 0 1 -1 1zm-5-2h4v-33h-4z"/><path d="m16 68.25h-6a1 1 0 0 1 -1-1v-35a1 1 0 0 1 1-1h6a1 1 0 0 1 1 1v35a1 1 0 0 1 -1 1zm-5-2h4v-33h-4z"/><path d="m58 57.084h-42a1 1 0 0 1 0-2h42a1 1 0 0 1 0 2z"/><path d="m64.5 23.25a1 1 0 0 1 -1-1v-3.95a9.12 9.12 0 0 1 -6.526-.531c-.491-.26-2.025-.878-2.934-.5a1.375 1.375 0 0 0 -.773 1.012 2.89 2.89 0 0 0 -.1.84v3.129a1 1 0 0 1 -2 0v-3.128a4.854 4.854 0 0 1 .181-1.405 3.357 3.357 0 0 1 1.923-2.293c1.956-.817 4.357.422 4.624.566a7.444 7.444 0 0 0 6.153-.011 1 1 0 0 1 1.452.892v5.379a1 1 0 0 1 -1 1z"/><path d="m52.167 23.25a1 1 0 0 1 -1-1v-3.128a2.954 2.954 0 0 0 -.1-.84 1.371 1.371 0 0 0 -.777-1.013 4.209 4.209 0 0 0 -2.9.482 9.166 9.166 0 0 1 -6.555.544v3.955a1 1 0 0 1 -2 0v-5.379a1 1 0 0 1 1.452-.892 7.553 7.553 0 0 0 6.181 0c.24-.13 2.64-1.368 4.6-.553a3.366 3.366 0 0 1 1.925 2.3 4.95 4.95 0 0 1 .18 1.4v3.124a1 1 0 0 1 -1.006 1z"/><path d="m21 23.25h-7.5a5.006 5.006 0 0 1 -5-5v-11.5a1 1 0 0 1 1-1h15.5a1 1 0 0 1 1 1v11.5a5.006 5.006 0 0 1 -5 5zm-10.5-15.5v10.5a3 3 0 0 0 3 3h7.5a3 3 0 0 0 3-3v-10.5z"/><path d="m29.05 15.23a1 1 0 0 1 -.69-1.724 1.948 1.948 0 0 0 .559-1.029 1.893 1.893 0 0 0 -3.207-1.685 1 1 0 1 1 -1.424-1.4 3.893 3.893 0 0 1 6.6 3.463 3.972 3.972 0 0 1 -1.145 2.1.991.991 0 0 1 -.693.275z"/><path d="m25 17.99a1 1 0 0 1 -.564-1.826l4.049-2.76a1 1 0 1 1 1.127 1.652l-4.05 2.76a.99.99 0 0 1 -.562.174z"/></svg>