<svg id="Icons" height="512" viewBox="0 0 74 74" width="512" xmlns="http://www.w3.org/2000/svg"><path d="m8.549 19.01a1 1 0 0 1 -.78-1.625c.809-1.012 1.7-2.05 2.656-3.083a1 1 0 0 1 1.475 1.356c-.921 1-1.785 2-2.565 2.976a1 1 0 0 1 -.786.376z"/><path d="m5.07 31.36a2.962 2.962 0 0 1 -2.187-.8c-1.393-1.395-.959-4.148 1.252-7.96a1 1 0 1 1 1.73 1c-2.065 3.561-1.928 5.183-1.565 5.543.383.383 2.117.5 5.946-1.809a51.9 51.9 0 0 0 9.5-7.671 51.887 51.887 0 0 0 7.668-9.5c2.312-3.83 2.2-5.566 1.812-5.95-.347-.348-1.907-.495-5.31 1.433a1 1 0 1 1 -.986-1.74c3.682-2.087 6.347-2.469 7.71-1.107 1.45 1.449.927 4.352-1.511 8.394a53.909 53.909 0 0 1 -7.969 9.88 53.847 53.847 0 0 1 -9.885 7.971c-2.546 1.54-4.641 2.315-6.205 2.316z"/><path d="m15.44 11.74a1 1 0 0 1 -.677-1.735c.99-.913 2.024-1.789 3.073-2.605a1 1 0 0 1 1.228 1.579c-1 .782-2 1.622-2.946 2.5a1 1 0 0 1 -.678.261z"/><path d="m27.774 63.68a5.74 5.74 0 0 1 -4.205-1.492c-2.428-2.44-1.881-7.409 1.5-13.635a1 1 0 1 1 1.758.954c-2.842 5.236-3.547 9.553-1.84 11.267 2.995 2.987 13.406-1.022 24.124-11.751 1.433-1.424 2.839-2.959 4.183-4.565.021-.031.042-.06.065-.088 6.982-8.383 10.2-16.745 7.484-19.452-1.722-1.728-6.032-1.027-11.255 1.83a1 1 0 0 1 -.959-1.755c6.216-3.4 11.185-3.944 13.629-1.489 3.61 3.6.68 12.461-7.3 22.066a1.016 1.016 0 0 1 -.067.091c-1.4 1.682-2.874 3.29-4.372 4.778-8.265 8.274-17.119 13.241-22.745 13.241z"/><path d="m30.424 54.787a2.769 2.769 0 0 1 -2.042-.745 1.054 1.054 0 0 1 -.1-.118l-18.328-25.144a1 1 0 1 1 1.617-1.18l18.267 25.066c1.048.813 6.81-1.482 14.118-8.791s9.6-13.076 8.789-14.118l-25.062-18.266a1 1 0 1 1 1.177-1.616l25.14 18.325a1.046 1.046 0 0 1 .118.1c1.293 1.293.962 3.706-.985 7.172a48.1 48.1 0 0 1 -7.763 9.818c-5.187 5.187-11.358 9.497-14.946 9.497z"/><path d="m70.92 72a1 1 0 0 1 -.548-.164l-25.828-16.928a1 1 0 0 1 1.1-1.673l21.873 14.338-14.227-22.025a1 1 0 0 1 1.68-1.085l16.79 25.995a1 1 0 0 1 -.84 1.542z"/></svg>