<svg id="Icons" height="512" viewBox="0 0 74 74" width="512" xmlns="http://www.w3.org/2000/svg"><path d="m17 51.64a1 1 0 0 1 -1-1v-4.24a1 1 0 0 1 2 0v4.24a1 1 0 0 1 -1 1z"/><path d="m57 72h-7a1 1 0 0 1 -1-1v-23.5h-24v23.5a1 1 0 0 1 -1 1h-7a1 1 0 0 1 -1-1v-14.36a1 1 0 0 1 2 0v13.36h5v-23.5a1 1 0 0 1 1-1h26a1 1 0 0 1 1 1v23.5h5v-27.5a2 2 0 0 0 -2-2h-30a1 1 0 0 1 -1-1v-33a2.516 2.516 0 0 0 -2.5-2.5 2.5 2.5 0 0 0 -2.5 2.5v22.67a1 1 0 0 1 -2 0v-22.67a4.505 4.505 0 0 1 4.5-4.5 4.515 4.515 0 0 1 4.5 4.5v32h29a4 4 0 0 1 4 4v28.5a1 1 0 0 1 -1 1z"/><path d="m17 40.4a1 1 0 0 1 -1-1v-4.23a1 1 0 0 1 2 0v4.23a1 1 0 0 1 -1 1z"/></svg>