<svg id="Icons" height="512" viewBox="0 0 74 74" width="512" xmlns="http://www.w3.org/2000/svg"><path d="m15.089 53.88a1 1 0 0 1 -.474-.12c-1.206-.651-2.338-1.33-3.46-2.078a1 1 0 0 1 1.11-1.664c1.069.712 2.148 1.361 3.3 1.982a1 1 0 0 1 -.475 1.88z"/><path d="m37 59.5a46.205 46.205 0 0 1 -16.812-3.158 1 1 0 1 1 .724-1.864 44.234 44.234 0 0 0 16.088 3.022 45.269 45.269 0 0 0 32.616-14 44.992 44.992 0 0 0 -65.231 0c.991 1.015 2.041 2 3.13 2.944a1 1 0 0 1 -1.309 1.513 53.313 53.313 0 0 1 -3.935-3.772 1 1 0 0 1 0-1.37 47.034 47.034 0 0 1 69.458 0 1 1 0 0 1 0 1.37 47.333 47.333 0 0 1 -34.729 15.315z"/><path d="m37 59.5a16 16 0 1 1 16-16 16.015 16.015 0 0 1 -16 16zm0-30a14 14 0 1 0 14 14 14.013 14.013 0 0 0 -14-14z"/><path d="m37 51.5a8 8 0 1 1 8-8 8.006 8.006 0 0 1 -8 8zm0-14a6 6 0 1 0 6 6 6 6 0 0 0 -6-6z"/><path d="m60.018 28.121a1 1 0 0 1 -.9-1.445l2.772-5.576a1 1 0 0 1 1.791.89l-2.767 5.571a1 1 0 0 1 -.896.56z"/><path d="m48.749 24.071a1 1 0 0 1 -.975-1.227l1.413-6.059a1 1 0 0 1 1.947.454l-1.412 6.061a1 1 0 0 1 -.973.771z"/><path d="m37 22.721a1 1 0 0 1 -1-1v-6.221a1 1 0 0 1 2 0v6.221a1 1 0 0 1 -1 1z"/><path d="m25.251 24.071a1 1 0 0 1 -.973-.773l-1.411-6.059a1 1 0 1 1 1.947-.454l1.412 6.059a1 1 0 0 1 -.975 1.227z"/><path d="m13.982 28.121a1 1 0 0 1 -.9-.556l-2.767-5.571a1 1 0 0 1 1.791-.89l2.767 5.572a1 1 0 0 1 -.9 1.445z"/></svg>