<svg id="Icons" height="512" viewBox="0 0 74 74" width="512" xmlns="http://www.w3.org/2000/svg"><path d="m30.71 45.99a1 1 0 0 1 -.623-1.782 36.018 36.018 0 0 0 2.87-2.559 1 1 0 0 1 1.407 1.422 37.981 37.981 0 0 1 -3.031 2.7.994.994 0 0 1 -.623.219z"/><path d="m13.71 53.68a1 1 0 0 1 -.985-1.174 38.563 38.563 0 0 1 10.748-20.643l16.59-16.59a1 1 0 0 1 1.414 0l9.64 9.64a1 1 0 0 1 0 1.414l-5.47 5.47a1 1 0 0 1 -1.414-1.414l4.767-4.763-8.23-8.226-15.883 15.883a36.546 36.546 0 0 0 -9.907 18.131 36.6 36.6 0 0 0 9.127-3.3c.357-.189.7-.371 1.038-.562a1 1 0 0 1 .991 1.737c-.354.2-.718.394-1.082.587a38.837 38.837 0 0 1 -11.168 3.8 1.046 1.046 0 0 1 -.176.01z"/><path d="m37.91 39.12a1 1 0 0 1 -.707-1.707l2.79-2.79a1 1 0 1 1 1.414 1.414l-2.79 2.79a1 1 0 0 1 -.707.293z"/><path d="m54.194 29.054a4.244 4.244 0 0 1 -3.009-1.244l-12.6-12.6a4.255 4.255 0 0 1 6.015-6.022l12.6 12.6a4.253 4.253 0 0 1 -3.008 7.262zm-12.605-19.111a2.255 2.255 0 0 0 -1.594 3.849l12.605 12.608a2.255 2.255 0 1 0 3.189-3.189l-12.6-12.6a2.248 2.248 0 0 0 -1.6-.668z"/><path d="m55.241 22.245a1 1 0 0 1 -.707-.293l-10.1-10.1a1 1 0 0 1 0-1.414l6.2-6.194a8.138 8.138 0 0 1 11.508 11.513l-6.194 6.2a1 1 0 0 1 -.707.288zm-8.681-11.095 8.681 8.681 5.487-5.488a6.138 6.138 0 0 0 -8.681-8.68z"/><path d="m14.505 72.135a5.037 5.037 0 0 1 -5.031-5.035c0-2.368 3.465-8.659 4.159-9.9a1.041 1.041 0 0 1 1.744 0c.695 1.237 4.16 7.528 4.16 9.9a5.037 5.037 0 0 1 -5.032 5.035zm0-12.342c-1.414 2.685-3.031 6.135-3.031 7.311a3.032 3.032 0 0 0 6.063 0c0-1.177-1.618-4.627-3.032-7.311z"/></svg>