<svg id="Icons" height="512" viewBox="0 0 74 74" width="512" xmlns="http://www.w3.org/2000/svg"><path d="m24.676 53.23a1 1 0 0 1 -.867-.5c-.88-1.53-1.642-2.912-2.33-4.226a1 1 0 0 1 1.771-.927c.676 1.29 1.426 2.65 2.292 4.156a1 1 0 0 1 -.866 1.5z"/><path d="m37 72a1 1 0 0 1 -.8-.4c-.045-.059-4.524-6.027-9.421-13.913a1 1 0 0 1 1.7-1.055c3.63 5.847 7.021 10.623 8.521 12.679 3.98-5.49 21.46-30.37 21.46-43.851a21.46 21.46 0 0 0 -42.92 0c0 4.2 1.717 9.939 5.1 17.061a1 1 0 1 1 -1.807.858c-3.514-7.391-5.3-13.42-5.3-17.919a23.46 23.46 0 0 1 46.92 0c0 15.8-21.735 44.909-22.661 46.141a1 1 0 0 1 -.8.4z"/><path d="m37 42.906a17.094 17.094 0 1 1 17.091-17.093 17.113 17.113 0 0 1 -17.091 17.093zm0-32.187a15.094 15.094 0 1 0 15.091 15.094 15.111 15.111 0 0 0 -15.091-15.094z"/><path d="m37 28.4a1.011 1.011 0 0 1 -.371-.071l-10.794-4.3a1 1 0 0 1 .075-1.884l10.79-3.345a1 1 0 0 1 .59 0l10.793 3.34a1 1 0 0 1 .076 1.884l-10.794 4.3a.99.99 0 0 1 -.365.076zm-7.8-5.19 7.8 3.109 7.8-3.109-7.8-2.41z"/><path d="m30.585 30.21a1 1 0 0 1 -1-1v-4.371a1 1 0 0 1 2 0v4.371a1 1 0 0 1 -1 1z"/><path d="m43.406 30.21a1 1 0 0 1 -1-1v-4.371a1 1 0 0 1 2 0v4.371a1 1 0 0 1 -1 1z"/><path d="m37 32.874c-3.683 0-7.411-1.259-7.411-3.663a1 1 0 0 1 2 0c0 .482 1.9 1.663 5.411 1.663s5.41-1.181 5.41-1.663a1 1 0 0 1 2 0c-.002 2.404-3.73 3.663-7.41 3.663z"/><path d="m47.791 28.2a1 1 0 0 1 -1-1v-4.109a1 1 0 0 1 2 0v4.109a1 1 0 0 1 -1 1z"/></svg>