<svg id="Icons" height="512" viewBox="0 0 74 74" width="512" xmlns="http://www.w3.org/2000/svg"><path d="m42 59.05h-3.95a1 1 0 0 1 0-2h3.95a1 1 0 0 1 0 2z"/><path d="m70 59.05h-12.05a1 1 0 0 1 0-2h12.05v-6.78h-66v6.78h28.05a1 1 0 0 1 0 2h-29.05a1 1 0 0 1 -1-1v-8.78a1 1 0 0 1 1-1h67a2 2 0 0 1 2 2v6.78a2 2 0 0 1 -2 2z"/><path d="m51.95 59.05h-3.95a1 1 0 0 1 0-2h3.95a1 1 0 0 1 0 2z"/><path d="m19.355 50.268h-16.355a1 1 0 0 1 -1-1v-14.268a4.223 4.223 0 0 1 3-4.02l52.089-15.58a10.548 10.548 0 0 1 13.269 7.6l1.406 5.759a1 1 0 0 1 -.724 1.206l-50.685 12.975v6.328a1 1 0 0 1 -1 1zm-15.355-2h14.355v-6.1a1 1 0 0 1 .752-.969l50.479-12.923-1.171-4.8a8.546 8.546 0 0 0 -10.752-6.163l-52.095 15.587a2.183 2.183 0 0 0 -1.568 2.1z"/><path d="m65.893 41.051h-38.273a1 1 0 0 1 0-2h37.273v-8.8a1 1 0 0 1 2 0v9.8a1 1 0 0 1 -1 1z"/><path d="m11.185 44.262a4.351 4.351 0 1 1 4.35-4.351 4.356 4.356 0 0 1 -4.35 4.351zm0-6.7a2.351 2.351 0 1 0 2.35 2.351 2.354 2.354 0 0 0 -2.35-2.353z"/></svg>