<svg id="Icons" height="512" viewBox="0 0 74 74" width="512" xmlns="http://www.w3.org/2000/svg"><path d="m49.01 61.14h-24.02a1 1 0 0 1 -.99-.87l-4.282-32.831a1 1 0 0 1 .992-1.129h32.58a1 1 0 0 1 .992 1.123l-1.53 12.334a1 1 0 1 1 -1.984-.246l1.39-11.211h-30.309l4.019 30.83h22.278l.545-3.7a1 1 0 1 1 1.978.291l-.669 4.555a1 1 0 0 1 -.99.854z"/><path d="m50.472 50.583a.945.945 0 0 1 -.13-.008 1 1 0 0 1 -.863-1.12l.509-3.94a1 1 0 0 1 1.984.257l-.51 3.94a1 1 0 0 1 -.99.871z"/><path d="m57.275 37.6h-5.132a1 1 0 0 1 0-2h5.132a.806.806 0 0 0 .791-.632l3.258-14.478a.81.81 0 0 0 -.79-.989h-47.068a.81.81 0 0 0 -.79.989l3.258 14.482a.806.806 0 0 0 .791.632h5.132a1 1 0 0 1 0 2h-5.132a2.794 2.794 0 0 1 -2.742-2.193l-3.258-14.482a2.81 2.81 0 0 1 2.741-3.429h47.068a2.81 2.81 0 0 1 2.741 3.428l-3.258 14.483a2.794 2.794 0 0 1 -2.742 2.189z"/><path d="m37 49.372a6.431 6.431 0 1 1 6.431-6.432 6.439 6.439 0 0 1 -6.431 6.432zm0-10.862a4.431 4.431 0 1 0 4.431 4.43 4.436 4.436 0 0 0 -4.431-4.43z"/><path d="m54.2 66.569h-34.4a1 1 0 0 1 -1-1v-5.431a1 1 0 0 1 1-1h34.4a1 1 0 0 1 1 1v5.431a1 1 0 0 1 -1 1zm-33.4-2h32.4v-3.431h-32.4z"/><path d="m58.724 72h-43.448a1 1 0 0 1 -1-1v-5.431a1 1 0 0 1 1-1h43.448a1 1 0 0 1 1 1v5.431a1 1 0 0 1 -1 1zm-42.448-2h41.448v-3.431h-41.448z"/><path d="m54.83 19.5a1 1 0 0 1 -1-1v-4.125a3.134 3.134 0 0 0 -1.978-2.922l-5.6-2.245a1 1 0 1 1 .743-1.857l5.605 2.249a5.125 5.125 0 0 1 3.235 4.779v4.121a1 1 0 0 1 -1.005 1z"/><path d="m44.949 11.8a1.983 1.983 0 0 1 -.732-.14l-5.926-2.344a1.993 1.993 0 0 1 -1.119-2.583l1.376-3.475a1.99 1.99 0 0 1 2.583-1.118l5.926 2.345a2 2 0 0 1 1.119 2.583l-1.376 3.475a1.99 1.99 0 0 1 -1.851 1.257zm-4.549-7.8-1.368 3.469 5.921 2.331 1.363-3.469z"/></svg>