<svg id="Icons" height="512" viewBox="0 0 74 74" width="512" xmlns="http://www.w3.org/2000/svg"><path d="m3 33.5a1 1 0 0 1 -1-1v-4.24a1 1 0 0 1 2 0v4.24a1 1 0 0 1 -1 1z"/><path d="m69 66.38h-64a3 3 0 0 1 -3-3v-13.64a1 1 0 0 1 2 0v13.64a1 1 0 0 0 1 1h64a1 1 0 0 0 1-1v-58.38a1 1 0 0 0 -1-1h-64a1 1 0 0 0 -1 1v17.26a1 1 0 0 1 -2 0v-17.26a3 3 0 0 1 3-3h64a3 3 0 0 1 3 3v58.38a3 3 0 0 1 -3 3z"/><path d="m3 44.74a1 1 0 0 1 -1-1v-4.24a1 1 0 0 1 2 0v4.24a1 1 0 0 1 -1 1z"/><path d="m63.313 72h-10.625a1 1 0 0 1 -1-1v-5.625a1 1 0 0 1 1-1h10.625a1 1 0 0 1 1 1v5.625a1 1 0 0 1 -1 1zm-9.625-2h8.625v-3.625h-8.625z"/><path d="m21.313 72h-10.625a1 1 0 0 1 -1-1v-5.625a1 1 0 0 1 1-1h10.625a1 1 0 0 1 1 1v5.625a1 1 0 0 1 -1 1zm-9.625-2h8.625v-3.625h-8.625z"/><path d="m63.313 30.688h-52.625a1 1 0 0 1 -1-1v-17.688a1 1 0 0 1 1-1h52.625a1 1 0 0 1 1 1v17.688a1 1 0 0 1 -1 1zm-51.625-2h50.625v-15.688h-50.625z"/><path d="m63.313 57.375h-52.625a1 1 0 0 1 -1-1v-17.687a1 1 0 0 1 1-1h52.625a1 1 0 0 1 1 1v17.687a1 1 0 0 1 -1 1zm-51.625-2h50.625v-15.687h-50.625z"/><path d="m44.25 24a1 1 0 0 1 -1-1v-1h-12.5v1a1 1 0 0 1 -2 0v-2a1 1 0 0 1 1-1h14.5a1 1 0 0 1 1 1v2a1 1 0 0 1 -1 1z"/><path d="m44.25 49.531a1 1 0 0 1 -1-1v-1h-12.5v1a1 1 0 1 1 -2 0v-2a1 1 0 0 1 1-1h14.5a1 1 0 0 1 1 1v2a1 1 0 0 1 -1 1z"/></svg>