<svg id="Icons" height="512" viewBox="0 0 74 74" width="512" xmlns="http://www.w3.org/2000/svg"><path d="m46.646 24.381a1 1 0 0 1 -.708-.293l-9.645-9.646a1 1 0 0 1 .148-1.536l15.94-10.736a1 1 0 0 1 1.411.307l3.677 5.995a1 1 0 0 1 -.031 1.092l-9.97 14.387a1 1 0 0 1 -.733.426c-.03.003-.06.004-.089.004zm-8.081-10.494 7.941 7.94 8.917-12.866-2.79-4.549z"/><path d="m27.35 24.38c-.03 0-.06 0-.09 0a1 1 0 0 1 -.733-.427l-9.969-14.393a1 1 0 0 1 -.031-1.093l3.68-5.99a1 1 0 0 1 1.416-.3l2.929 2a1 1 0 0 1 -1.127 1.652l-2.063-1.412-2.789 4.541 8.916 12.868 7.946-7.936-2.789-1.885a1 1 0 1 1 1.119-1.657l3.8 2.564a1 1 0 0 1 .147 1.536l-9.65 9.639a1 1 0 0 1 -.712.293z"/><path d="m29.333 9.577a.992.992 0 0 1 -.558-.171l-1.61-1.085a1 1 0 0 1 1.117-1.658l1.611 1.085a1 1 0 0 1 -.56 1.829z"/><path d="m41.524 27.6h-9.045a1 1 0 0 1 -.921-.613l-2.469-5.88a1 1 0 0 1 1.844-.774l2.212 5.267h7.713l2.2-5.266a1 1 0 1 1 1.845.772l-2.457 5.88a1 1 0 0 1 -.922.614z"/><path d="m37.007 72a1 1 0 0 1 -.784-.379l-10.523-13.283a1 1 0 0 1 -.2-.811l6-31.116a1 1 0 0 1 .981-.811h9.045a1 1 0 0 1 .982.811l6 31.116a1 1 0 0 1 -.2.81l-10.517 13.284a1 1 0 0 1 -.784.379zm-9.457-14.544 9.457 11.933 9.447-11.933-5.754-29.856h-7.395z"/><path d="m33.669 67.79a1 1 0 0 1 -.777-1.628l12.589-15.61a1 1 0 0 1 1.557 1.256l-12.59 15.61a1 1 0 0 1 -.779.372z"/><path d="m29.569 62.62a1 1 0 0 1 -.777-1.628l15.1-18.7a1 1 0 0 1 1.556 1.256l-15.1 18.7a1 1 0 0 1 -.779.372z"/><path d="m27.109 55.45a1 1 0 0 1 -.777-1.628l15.96-19.79a1 1 0 0 1 1.557 1.256l-15.96 19.79a1 1 0 0 1 -.78.372z"/><path d="m29.7 42a1 1 0 0 1 -1-.995 1.024 1.024 0 0 1 .222-.638l11.62-14.39a1 1 0 0 1 1.558 1.252l-11.592 14.354a1 1 0 0 1 -.808.417z"/></svg>