<svg id="Icons" height="512" viewBox="0 0 74 74" width="512" xmlns="http://www.w3.org/2000/svg"><path d="m22.151 22.4a1 1 0 0 1 -.436-1.9 34.384 34.384 0 0 1 6.1-2.276 1 1 0 0 1 .515 1.932 32.465 32.465 0 0 0 -5.744 2.144 1 1 0 0 1 -.435.1z"/><path d="m71 57h-68a1 1 0 0 1 -1-1v-4a34.715 34.715 0 0 1 6.712-20.62 1 1 0 0 1 1.615 1.18 32.728 32.728 0 0 0 -6.327 19.44v3h66v-3a33.062 33.062 0 0 0 -36.6-32.806 1 1 0 1 1 -.212-1.988 35.059 35.059 0 0 1 38.812 34.794v4a1 1 0 0 1 -1 1z"/><path d="m12.97 28.95a1 1 0 0 1 -.707-1.707 35.08 35.08 0 0 1 4.993-4.149 1 1 0 0 1 1.129 1.652 33.171 33.171 0 0 0 -4.708 3.911 1 1 0 0 1 -.707.293z"/><path d="m60.241 47h-46.482a1 1 0 0 1 -.968-1.25 25 25 0 0 1 48.418 0 1 1 0 0 1 -.968 1.25zm-45.153-2h43.824a23 23 0 0 0 -43.824 0z"/><path d="m61.5 57a1 1 0 0 1 -1-1v-2.531a1 1 0 1 1 2 0v2.531a1 1 0 0 1 -1 1z"/><path d="m54.5 57a1 1 0 0 1 -1-1v-4a1 1 0 0 1 2 0v4a1 1 0 0 1 -1 1z"/><path d="m47.5 57a1 1 0 0 1 -1-1v-2.531a1 1 0 1 1 2 0v2.531a1 1 0 0 1 -1 1z"/><path d="m40.5 57a1 1 0 0 1 -1-1v-4a1 1 0 0 1 2 0v4a1 1 0 0 1 -1 1z"/><path d="m33.5 57a1 1 0 0 1 -1-1v-2.531a1 1 0 1 1 2 0v2.531a1 1 0 0 1 -1 1z"/><path d="m26.5 57a1 1 0 0 1 -1-1v-4a1 1 0 0 1 2 0v4a1 1 0 0 1 -1 1z"/><path d="m19.5 57a1 1 0 0 1 -1-1v-2.531a1 1 0 1 1 2 0v2.531a1 1 0 0 1 -1 1z"/><path d="m12.5 57a1 1 0 0 1 -1-1v-4a1 1 0 0 1 2 0v4a1 1 0 0 1 -1 1z"/></svg>