<svg id="Icons" height="512" viewBox="0 0 74 74" width="512" xmlns="http://www.w3.org/2000/svg"><path d="m37 25.914a8.323 8.323 0 0 1 -8.313-8.314v-5.888a2.711 2.711 0 0 1 2.713-2.712h11.21a2.711 2.711 0 0 1 2.708 2.709v5.891a8.323 8.323 0 0 1 -8.318 8.314zm-5.6-14.914a.709.709 0 0 0 -.708.709v5.891a6.313 6.313 0 1 0 12.626 0v-5.888a.709.709 0 0 0 -.713-.712z"/><path d="m39.881 11h-5.762a1 1 0 0 1 -1-1v-4.12a3.881 3.881 0 0 1 7.762 0v4.12a1 1 0 0 1 -1 1zm-4.762-2h3.762v-3.12a1.881 1.881 0 0 0 -3.762 0z"/><path d="m37 21a3.7 3.7 0 1 1 3.7-3.7 3.707 3.707 0 0 1 -3.7 3.7zm0-5.4a1.7 1.7 0 1 0 1.7 1.7 1.7 1.7 0 0 0 -1.7-1.7z"/><path d="m48.239 40.59a1 1 0 0 1 -.962-.73l-1.07-3.81a1 1 0 0 1 1.926-.541l1.07 3.81a1 1 0 0 1 -.692 1.234 1.024 1.024 0 0 1 -.272.037z"/><path d="m48.86 66.35a1 1 0 0 1 -.967-.747l-10.6-40.56a1 1 0 0 1 1.936-.506l10.335 39.551 1.451-.44-.055-8.512a1 1 0 0 1 .993-1.006h.007a1 1 0 0 1 1 .994l.06 9.26a1 1 0 0 1 -.712.964l-3.155.958a1 1 0 0 1 -.293.044z"/><path d="m50.919 50.17a1 1 0 0 1 -.962-.732l-1.06-3.8a1 1 0 1 1 1.926-.537l1.06 3.8a1 1 0 0 1 -.964 1.269z"/><path d="m45.559 31a1 1 0 0 1 -.962-.73l-2.38-8.49a1 1 0 1 1 1.926-.54l2.379 8.49a1 1 0 0 1 -.693 1.233 1.009 1.009 0 0 1 -.27.037z"/><path d="m25.14 66.348a.992.992 0 0 1 -.291-.044l-3.159-.962a1 1 0 0 1 -.709-.964l.082-11.578a.934.934 0 0 1 .037-.263l8.756-31.3a1 1 0 1 1 1.926.539l-8.72 31.174-.076 10.7 1.45.441 10.335-39.552a1 1 0 0 1 1.936.5l-10.6 40.561a1 1 0 0 1 -.967.747z"/><path d="m52.018 72a1 1 0 0 1 -.968-.753l-1.563-6.139a1 1 0 1 1 1.938-.493l1.562 6.138a1 1 0 0 1 -.721 1.216 1.009 1.009 0 0 1 -.248.031z"/><path d="m21.982 72a1.009 1.009 0 0 1 -.248-.031 1 1 0 0 1 -.721-1.216l1.562-6.138a1 1 0 1 1 1.938.493l-1.563 6.139a1 1 0 0 1 -.968.753z"/></svg>