<svg id="Icons" height="512" viewBox="0 0 74 74" width="512" xmlns="http://www.w3.org/2000/svg"><path d="m55.98 41.3h-3.96a1 1 0 1 1 0-2h3.96a1 1 0 1 1 0 2z"/><path d="m62.96 57.81h-19.12a3.223 3.223 0 0 1 -3.181-2.774l-1.61-12.114a3.2 3.2 0 0 1 3.171-3.622h3.8a1 1 0 0 1 0 2h-3.8a1.187 1.187 0 0 0 -.906.411 1.171 1.171 0 0 0 -.283.944l1.611 12.114a1.213 1.213 0 0 0 1.2 1.041h19.118a1.207 1.207 0 0 0 1.2-1.12l.52-7.846a1.125 1.125 0 0 1 .02-.145l.27-4.115a1.21 1.21 0 0 0 -1.2-1.284h-1.79a1 1 0 0 1 0-2h1.79a3.211 3.211 0 0 1 3.2 3.413l-.28 4.263a1.025 1.025 0 0 1 -.02.146l-.51 7.7a3.216 3.216 0 0 1 -3.2 2.988z"/><path d="m30.156 57.812h-19.127a3.21 3.21 0 0 1 -3.194-2.989l-.807-12.107a3.2 3.2 0 0 1 3.2-3.414h21.543a3.2 3.2 0 0 1 3.172 3.625l-1.614 12.106a3.211 3.211 0 0 1 -3.173 2.779zm-19.933-16.512a1.2 1.2 0 0 0 -1.2 1.281l.808 12.109a1.2 1.2 0 0 0 1.2 1.122h19.125a1.206 1.206 0 0 0 1.191-1.043l1.614-12.107a1.2 1.2 0 0 0 -1.19-1.359z"/><path d="m67.7 47.906h-2.017a1 1 0 0 1 0-2h2.017a2.3 2.3 0 0 0 2.218-2.916l-6.652-23.927a1.2 1.2 0 0 0 -1.161-.875h-5.888a1 1 0 0 1 0-2h5.888a3.21 3.21 0 0 1 3.087 2.339l6.65 23.929a4.3 4.3 0 0 1 -4.146 5.45z"/><path d="m8.317 47.906h-2.017a4.3 4.3 0 0 1 -4.146-5.45l6.653-23.928a3.211 3.211 0 0 1 3.088-2.34h5.888a1 1 0 0 1 0 2h-5.883a1.206 1.206 0 0 0 -1.162.876l-6.652 23.927a2.3 2.3 0 0 0 2.214 2.915h2.017a1 1 0 0 1 0 2z"/><path d="m37 48.8a9.021 9.021 0 0 1 -4.042-1 1 1 0 0 1 .891-1.791 6.659 6.659 0 0 0 6.3 0 1 1 0 0 1 .892 1.79 8.978 8.978 0 0 1 -4.041 1.001z"/></svg>