<?xml version="1.0" encoding="UTF-8"?>
<svg xmlns="http://www.w3.org/2000/svg" id="Icons" viewBox="0 0 74 74" width="512" height="512"><path d="M65.772,50.219H58.148a1,1,0,0,1,0-2h7.624a4.667,4.667,0,0,0,0-9.334H59.4a1,1,0,0,1,0-2h6.368a6.667,6.667,0,0,1,0,13.334Z"/><path d="M64.325,61.291h-7.55a1,1,0,0,1,0-2h7.55a4.536,4.536,0,1,0,0-9.072H58.148a1,1,0,0,1,0-2h6.177a6.536,6.536,0,1,1,0,13.072Z"/><path d="M63.08,71.98H56.95a1,1,0,0,1,0-2h6.13a4.345,4.345,0,0,0,0-8.69h-6.3a1,1,0,0,1,0-2h6.3a6.345,6.345,0,0,1,0,12.69Z"/><path d="M41,71.98H37.05a1,1,0,0,1,0-2H41a1,1,0,0,1,0,2Z"/><path d="M50.95,71.98H47a1,1,0,0,1,0-2h3.95a1,1,0,0,1,0,2Z"/><path d="M31.051,71.76a.971.971,0,0,1-.177-.016c-3.884-.695-10.847-3.321-13.85-13.1a1.012,1.012,0,0,1-.044-.294V35.61a1,1,0,0,1,.582-.909A33.5,33.5,0,0,0,35.192,7.313a5.921,5.921,0,0,1,.146-.917c.656-2.6,2.434-4.237,4.759-4.384a5.484,5.484,0,0,1,3.441,1.051C46.177,4.939,54,12.027,47.184,26.31H66.15a6.29,6.29,0,0,1,0,12.58H59.4a1,1,0,1,1,0-2h6.75a4.29,4.29,0,0,0,0-8.58H45.56a1,1,0,0,1-.884-1.468c7.13-13.451.77-19.969-2.3-22.147a3.464,3.464,0,0,0-2.161-.687,3.386,3.386,0,0,0-2.94,2.867,3.844,3.844,0,0,0-.093.584A35.562,35.562,0,0,1,18.98,36.221V58.2c2.576,8.213,8.075,10.83,12.246,11.576a1,1,0,0,1-.175,1.985Z"/><path d="M14.246,71.98H6.3a4.744,4.744,0,0,1-4.738-4.739v-33.5A4.744,4.744,0,0,1,6.3,29h7.946a4.744,4.744,0,0,1,4.738,4.738v33.5A4.744,4.744,0,0,1,14.246,71.98ZM6.3,31a2.741,2.741,0,0,0-2.738,2.738v33.5A2.742,2.742,0,0,0,6.3,69.98h7.946a2.742,2.742,0,0,0,2.738-2.739v-33.5A2.741,2.741,0,0,0,14.246,31Z"/></svg>
