<?xml version="1.0" encoding="UTF-8"?>
<svg xmlns="http://www.w3.org/2000/svg" id="Icons" viewBox="0 0 74 74" width="512" height="512"><path d="M48.98,55.91H25.02a1,1,0,0,1-.9-1.444A11.929,11.929,0,0,1,28.2,50.59,9.48,9.48,0,0,0,32.451,42.5c-.232-6.114-5.646-11.5-5.7-11.555a.961.961,0,0,1-.08-.088,19.56,19.56,0,0,1-1.76-2.623c-3.323-5.838-4.719-14-5.3-19.813-.33-3.172-.373-5.312-.375-5.4A1,1,0,0,1,20.23,2h11.8a1,1,0,0,1,0,2H21.269c.044.919.137,2.4.326,4.216.464,4.608,1.738,13.2,5.054,19.03A17.666,17.666,0,0,0,28.2,29.561c.6.6,6,6.183,6.255,12.861a11.492,11.492,0,0,1-5.13,9.826,19.79,19.79,0,0,0-2.173,1.662H46.853a19.706,19.706,0,0,0-2.17-1.66,11.491,11.491,0,0,1-5.132-9.829c.253-6.677,5.657-12.264,6.254-12.86a17.617,17.617,0,0,0,1.545-2.314c3.317-5.829,4.591-14.423,5.055-19.027.189-1.816.282-3.3.326-4.22H47.97a1,1,0,0,1,0-2h5.8a1,1,0,0,1,1,1.019c0,.089-.045,2.229-.375,5.4-.586,5.813-1.982,13.972-5.306,19.812a19.564,19.564,0,0,1-1.759,2.621.961.961,0,0,1-.08.088c-.055.054-5.469,5.441-5.7,11.554A9.482,9.482,0,0,0,45.8,50.592a11.922,11.922,0,0,1,4.075,3.874,1,1,0,0,1-.9,1.444Z"/><path d="M41.97,4H38.03a1,1,0,0,1,0-2h3.94a1,1,0,0,1,0,2Z"/><path d="M48.98,60.743H25.02a1,1,0,0,1-1-1v-4.83a1,1,0,0,1,1-1H48.98a1,1,0,0,1,1,1v4.83A1,1,0,0,1,48.98,60.743Zm-22.96-2H47.98v-2.83H26.02Z"/><path d="M50.983,72H22.637a1.889,1.889,0,0,1-1.887-1.887V60.63a1.888,1.888,0,0,1,1.887-1.887H50.983A1.889,1.889,0,0,1,52.87,60.63v9.483A1.89,1.89,0,0,1,50.983,72ZM22.75,70H50.87V60.743H22.75Z"/><path d="M40.321,66.372H33.679a1,1,0,0,1,0-2h6.642a1,1,0,0,1,0,2Z"/><path d="M41.2,23.834a1.012,1.012,0,0,1-.466-.114L37,21.754,33.262,23.72a1,1,0,0,1-1.451-1.054l.713-4.164L29.5,15.555a1,1,0,0,1,.554-1.706l4.18-.608L36.1,9.454a1.04,1.04,0,0,1,1.792,0l1.87,3.787,4.18.608a1,1,0,0,1,.554,1.706L41.476,18.5l.713,4.164a1,1,0,0,1-.985,1.168ZM37,19.625a1,1,0,0,1,.465.114l2.41,1.267-.46-2.684a1,1,0,0,1,.288-.885l1.95-1.9-2.695-.392a1,1,0,0,1-.752-.547L37,12.156,35.794,14.6a1,1,0,0,1-.752.547l-2.695.392,1.95,1.9a1,1,0,0,1,.288.885l-.46,2.684,2.41-1.267A1,1,0,0,1,37,19.625Z"/><path d="M48.219,28.74a1,1,0,0,1-.278-1.961c7.926-2.3,11.759-6,13.579-8.7a6.5,6.5,0,0,0,.568-6.673C59.793,7.1,54,9.171,53.75,9.262a1,1,0,0,1-.7-1.875c2.642-.983,8.3-1.6,10.8,3.072a8.5,8.5,0,0,1-.674,8.732C61.174,22.169,57,26.237,48.5,28.7A1,1,0,0,1,48.219,28.74Z"/><path d="M25.781,28.74a1,1,0,0,1-.279-.04c-8.5-2.463-12.676-6.531-14.681-9.509a8.5,8.5,0,0,1-.674-8.732c2.5-4.675,8.155-4.053,10.8-3.072a1,1,0,0,1-.7,1.875C20,9.171,14.206,7.1,11.912,11.4a6.5,6.5,0,0,0,.568,6.673c1.82,2.7,5.653,6.409,13.579,8.7a1,1,0,0,1-.278,1.961Z"/></svg>
