<?xml version="1.0" encoding="UTF-8"?>
<svg xmlns="http://www.w3.org/2000/svg" id="Icons" viewBox="0 0 74 74" width="512" height="512"><path d="M4.61,27.65a1,1,0,0,1-.953-1.3,31.782,31.782,0,0,1,1.507-3.88,1,1,0,0,1,1.812.846,29.957,29.957,0,0,0-1.413,3.64A1,1,0,0,1,4.61,27.65Z"/><path d="M10.93,59.83h-.044a1,1,0,0,1-.722-.357A35.05,35.05,0,0,1,2,37a33.311,33.311,0,0,1,.258-4.2,1,1,0,0,1,1.984.254A31.345,31.345,0,0,0,4,37a33.054,33.054,0,0,0,7.008,20.337L33,35.346V4.249a32.736,32.736,0,0,0-16.41,6.835,1,1,0,0,1-1.24-1.569A34.722,34.722,0,0,1,33.913,2.144,1,1,0,0,1,35,3.14V35.76a1,1,0,0,1-.293.707l-23.07,23.07A1,1,0,0,1,10.93,59.83Z"/><path d="M9.029,18.67A1,1,0,0,1,8.206,17.1a31.859,31.859,0,0,1,2.541-3.231,1,1,0,1,1,1.487,1.337,29.757,29.757,0,0,0-2.38,3.028A1,1,0,0,1,9.029,18.67Z"/><path d="M37,72a35.05,35.05,0,0,1-22.472-8.164,1,1,0,0,1-.065-1.473l21.83-21.83a1,1,0,0,1,1.414,0l21.83,21.83a1,1,0,0,1-.065,1.473A35.05,35.05,0,0,1,37,72ZM16.663,62.992a33.013,33.013,0,0,0,40.674,0L37,42.654Z"/><path d="M63.07,59.83a1,1,0,0,1-.707-.293l-18.83-18.83A1,1,0,0,1,44.24,39H70.86a1,1,0,0,1,1,1.085,34.632,34.632,0,0,1-8.02,19.388,1,1,0,0,1-.722.356ZM46.654,41,62.992,57.338A32.6,32.6,0,0,0,69.753,41Z"/><path d="M70.86,35H40a1,1,0,0,1-1-1V3.14a1,1,0,0,1,.324-.737,1.018,1.018,0,0,1,.762-.259,34.852,34.852,0,0,1,31.77,31.77,1,1,0,0,1-1,1.086ZM41,33H69.751A32.845,32.845,0,0,0,41,4.249Z"/></svg>
