<svg id="Icons" height="512" viewBox="0 0 74 74" width="512" xmlns="http://www.w3.org/2000/svg"><path d="m46.041 35.635a1 1 0 0 1 -.231-1.973 15.029 15.029 0 1 0 -16.517-22.052 15.129 15.129 0 0 0 -1.267 11.952 1 1 0 0 1 -1.908.6 17.032 17.032 0 0 1 24.65-19.937 17.023 17.023 0 0 1 6.4 23.214 17.132 17.132 0 0 1 -10.891 8.168.983.983 0 0 1 -.236.028z"/><path d="m58.336 29.105a1 1 0 0 1 -.493-.13l-31.954-18.149a1 1 0 0 1 .987-1.739l31.955 18.148a1 1 0 0 1 -.5 1.87z"/><path d="m31.436 54.189a1 1 0 0 1 -.786-1.619l2.134-2.709a1 1 0 1 1 1.571 1.239l-2.133 2.709a1 1 0 0 1 -.786.38z"/><path d="m25.572 61.029a2.027 2.027 0 0 1 -.99-.256l-8.956-5.093a2 2 0 0 1 -.877-2.465l11.387-29.715a1 1 0 0 1 1.427-.512l18.971 10.772a1 1 0 0 1 .291 1.489l-3.446 4.37a1 1 0 0 1 -1.57-1.238l2.725-3.456-16.947-9.625-10.973 28.638 8.95 5.093 1.988-2.326a1 1 0 0 1 1.521 1.295l-1.963 2.3a1.934 1.934 0 0 1 -1.538.729z"/><path d="m37.279 46.77a1 1 0 0 1 -.786-1.617l2.174-2.77a1 1 0 1 1 1.573 1.234l-2.174 2.77a1 1 0 0 1 -.787.383z"/><path d="m28.922 46.535a3.854 3.854 0 0 1 -3.344-5.756l2.13-3.75a3.852 3.852 0 1 1 6.7 3.8l-2.13 3.75a3.828 3.828 0 0 1 -2.327 1.821 3.9 3.9 0 0 1 -1.029.135zm2.139-9.457a1.862 1.862 0 0 0 -1.614.938l-2.13 3.75a1.852 1.852 0 0 0 3.221 1.83l2.13-3.75a1.853 1.853 0 0 0 -1.607-2.768z"/><path d="m31.213 45.38a1 1 0 0 1 -.921-1.389 1.847 1.847 0 0 0 -3.19-1.81 1 1 0 1 1 -1.608-1.188 3.847 3.847 0 0 1 4.992-1.057 3.843 3.843 0 0 1 1.649 4.832 1 1 0 0 1 -.922.612z"/><path d="m25.731 72a1 1 0 0 1 -.639-.231l-3.122-2.594a9.742 9.742 0 0 1 -2.246-12.314 1 1 0 0 1 1.739.987 7.745 7.745 0 0 0 1.786 9.789l3.122 2.594a1 1 0 0 1 -.64 1.769z"/></svg>