<svg id="Icons" height="512" viewBox="0 0 74 74" width="512" xmlns="http://www.w3.org/2000/svg"><path d="m17.449 17.716h-14.449a1 1 0 0 1 -1-1v-1.184a8.225 8.225 0 0 1 16.449 0v1.184a1 1 0 0 1 -1 1zm-13.449-2h12.449v-.184a6.225 6.225 0 0 0 -12.449 0z"/><path d="m57.94 30.47a1 1 0 0 1 -1-1v-4.23a1 1 0 1 1 2 0v4.23a1 1 0 0 1 -1 1z"/><path d="m57.94 58.64a1 1 0 0 1 -1-1v-10.93a1 1 0 0 1 2 0v10.93a1 1 0 0 1 -1 1z"/><path d="m57.94 41.71a1 1 0 0 1 -1-1v-4.24a1 1 0 0 1 2 0v4.24a1 1 0 0 1 -1 1z"/><path d="m57.94 20.24a1 1 0 0 1 -1-1v-4.17a5.771 5.771 0 0 0 -5.76-5.77h-40.95a1 1 0 0 1 0-2h40.95a7.774 7.774 0 0 1 7.76 7.77v4.17a1 1 0 0 1 -1 1z"/><path d="m64.429 66.695h-39.829a8.248 8.248 0 0 1 -8.155-8.237v-41.742a1 1 0 1 1 2 0v41.742a6.238 6.238 0 0 0 12.476 0v-.817a1 1 0 0 1 1-1h39.079a1 1 0 0 1 1 1v1.483a7.579 7.579 0 0 1 -7.571 7.571zm-34.366-2h34.366a5.578 5.578 0 0 0 5.571-5.571v-.483h-37.077a8.222 8.222 0 0 1 -2.86 6.054z"/><path d="m49.8 21.634h-24.453a1 1 0 0 1 0-2h24.453a1 1 0 1 1 0 2z"/><path d="m49.8 30.777h-24.453a1 1 0 0 1 0-2h24.453a1 1 0 1 1 0 2z"/><path d="m49.8 39.92h-24.453a1 1 0 1 1 0-2h24.453a1 1 0 1 1 0 2z"/><path d="m49.8 49.063h-24.453a1 1 0 1 1 0-2h24.453a1 1 0 1 1 0 2z"/></svg>