<svg id="Icons" height="512" viewBox="0 0 74 74" width="512" xmlns="http://www.w3.org/2000/svg"><path d="m54.3 9.387h-34.6a1 1 0 0 1 -.887-1.461l2.8-5.387a1 1 0 0 1 .887-.539h29a1 1 0 0 1 .888.539l2.8 5.387a1 1 0 0 1 -.888 1.461zm-32.959-2h31.313l-1.76-3.387h-27.794z"/><path d="m42.628 32.519a1 1 0 0 1 -.892-1.451l11.676-23.131a1 1 0 1 1 1.785.9l-11.676 23.132a1 1 0 0 1 -.893.55z"/><path d="m36.669 28.156a1 1 0 0 1 -.876-1.48l10.287-18.769a1 1 0 1 1 1.754.961l-10.287 18.769a1 1 0 0 1 -.878.519z"/><path d="m31.505 32.519a1 1 0 0 1 -.892-.546l-11.808-23.131a1 1 0 1 1 1.781-.909l11.814 23.131a1 1 0 0 1 -.89 1.455z"/><path d="m38.885 32.519a1 1 0 0 1 -.893-.548l-11.753-23.131a1 1 0 0 1 1.783-.906l11.753 23.132a1 1 0 0 1 -.439 1.344.989.989 0 0 1 -.451.109z"/><path d="m45.239 39.59a1 1 0 0 1 -1-1v-5.69a.377.377 0 0 0 -.377-.376h-13.636a.377.377 0 0 0 -.377.376v5.7a1 1 0 0 1 -2 0v-5.7a2.378 2.378 0 0 1 2.377-2.376h13.636a2.378 2.378 0 0 1 2.377 2.376v5.7a1 1 0 0 1 -1 .99z"/><path d="m41.519 71.411a1 1 0 0 1 -.254-1.968 16.282 16.282 0 0 0 3.457-1.366 1 1 0 1 1 .937 1.766 18.2 18.2 0 0 1 -3.885 1.534 1.016 1.016 0 0 1 -.255.034z"/><path d="m35.171 71.9a1 1 0 0 1 -.108-.006 18.241 18.241 0 0 1 -6.8-34.123.842.842 0 0 1 .114-.072 18.6 18.6 0 0 1 17.339.011 18.242 18.242 0 0 1 5.078 28.027 1 1 0 1 1 -1.508-1.314 16.242 16.242 0 0 0 -4.522-24.954 16.569 16.569 0 0 0 -15.334-.069 1.153 1.153 0 0 1 -.105.066 16.241 16.241 0 0 0 5.952 30.436 1 1 0 0 1 -.106 1.994z"/><path d="m37.044 67.529a13.769 13.769 0 1 1 13.769-13.768 13.784 13.784 0 0 1 -13.769 13.768zm0-25.537a11.769 11.769 0 1 0 11.769 11.769 11.782 11.782 0 0 0 -11.769-11.769z"/><path d="m37.038 59.333a1 1 0 0 1 -1-1v-7.579l-1.589 1.519a1 1 0 0 1 -1.383-1.445l3.281-3.136a1 1 0 0 1 1.691.723v9.918a1 1 0 0 1 -1 1z"/><path d="m40.3 59.329h-6.338a1 1 0 0 1 0-2h6.338a1 1 0 0 1 0 2z"/></svg>