<svg id="Icons" height="512" viewBox="0 0 74 74" width="512" xmlns="http://www.w3.org/2000/svg"><path d="m48.95 72h-3.95a1 1 0 0 1 0-2h3.95a1 1 0 0 1 0 2z"/><path d="m71 72h-16.05a1 1 0 0 1 0-2h15.05v-18h-47a1 1 0 0 1 -1-1v-47h-18v66h25.05a1 1 0 0 1 0 2h-26.05a1 1 0 0 1 -1-1v-68a1 1 0 0 1 1-1h20a1 1 0 0 1 1 1v47h47a1 1 0 0 1 1 1v20a1 1 0 0 1 -1 1z"/><path d="m39 72h-3.95a1 1 0 0 1 0-2h3.95a1 1 0 0 1 0 2z"/><path d="m23 13h-6a1 1 0 0 1 0-2h6a1 1 0 0 1 0 2z"/><path d="m23 20.875h-4a1 1 0 0 1 0-2h4a1 1 0 0 1 0 2z"/><path d="m23 28.75h-6a1 1 0 0 1 0-2h6a1 1 0 0 1 0 2z"/><path d="m23 36.625h-4a1 1 0 0 1 0-2h4a1 1 0 0 1 0 2z"/><path d="m23 44.5h-6a1 1 0 0 1 0-2h6a1 1 0 0 1 0 2z"/><path d="m32.25 58a1 1 0 0 1 -1-1v-6a1 1 0 0 1 2 0v6a1 1 0 0 1 -1 1z"/><path d="m40.125 56a1 1 0 0 1 -1-1v-4a1 1 0 0 1 2 0v4a1 1 0 0 1 -1 1z"/><path d="m48 58a1 1 0 0 1 -1-1v-6a1 1 0 0 1 2 0v6a1 1 0 0 1 -1 1z"/><path d="m55.875 56a1 1 0 0 1 -1-1v-4a1 1 0 0 1 2 0v4a1 1 0 0 1 -1 1z"/><path d="m63.75 58a1 1 0 0 1 -1-1v-6a1 1 0 0 1 2 0v6a1 1 0 0 1 -1 1z"/></svg>