<svg id="Icons" height="512" viewBox="0 0 74 74" width="512" xmlns="http://www.w3.org/2000/svg"><path d="m52.961 37.479h-44.881a1 1 0 0 1 -1-1v-16.079a1 1 0 0 1 2 0v15.079h42.881v-6.444a1 1 0 1 1 2 0v7.444a1 1 0 0 1 -1 1z"/><path d="m32 9.9h-3.95a1 1 0 0 1 0-2h3.95a1 1 0 0 1 0 2z"/><path d="m58.42 30.03h-38.49a1 1 0 0 1 -.588-.192l-11.85-8.619-.056-.044-5.025-3.656a1 1 0 0 1 -.411-.809v-7.81a1 1 0 0 1 1-1h19.05a1 1 0 0 1 0 2h-18.05v6.3l4.612 3.356a.952.952 0 0 1 .129.1l11.514 8.374h37.165v-14.3a3.834 3.834 0 0 0 -3.83-3.83h-5.64a1 1 0 0 1 0-2h5.64a5.836 5.836 0 0 1 5.83 5.83v15.3a1 1 0 0 1 -1 1z"/><path d="m41.95 9.9h-3.95a1 1 0 0 1 0-2h3.95a1 1 0 0 1 0 2z"/><path d="m8.08 32.613h-5.08a1 1 0 0 1 -1-1v-11.213a1 1 0 0 1 1-1h5.08a1 1 0 0 1 0 2h-4.08v9.213h4.08a1 1 0 0 1 0 2z"/><path d="m35.539 51.224a1 1 0 0 1 -1-1v-13.745a1 1 0 0 1 2 0v13.745a1 1 0 0 1 -1 1z"/><path d="m43.167 51.651a1 1 0 0 1 -1-1v-14.172a1 1 0 0 1 2 0v14.172a1 1 0 0 1 -1 1z"/><path d="m39.066 62.65a7.261 7.261 0 1 1 7.262-7.261 7.269 7.269 0 0 1 -7.262 7.261zm0-12.522a5.261 5.261 0 1 0 5.262 5.261 5.267 5.267 0 0 0 -5.262-5.261z"/><path d="m64.523 60.011h-20.349a1 1 0 0 1 0-2h19.349v-5.246h-19.349a1 1 0 1 1 0-2h20.349a1 1 0 0 1 1 1v7.246a1 1 0 0 1 -1 1z"/><path d="m71 66.1h-3.238a4.243 4.243 0 0 1 -4.239-4.238v-12.95a4.244 4.244 0 0 1 4.239-4.239h3.238a1 1 0 0 1 1 1v19.427a1 1 0 0 1 -1 1zm-3.238-19.427a2.241 2.241 0 0 0 -2.239 2.239v12.952a2.241 2.241 0 0 0 2.239 2.236h2.238v-17.427z"/></svg>