<svg id="Icons" height="512" viewBox="0 0 74 74" width="512" xmlns="http://www.w3.org/2000/svg"><path d="m18.019 65a.992.992 0 0 1 -.583-.188 34.615 34.615 0 0 1 -3.152-2.575 1 1 0 0 1 1.352-1.474 32.682 32.682 0 0 0 2.964 2.425 1 1 0 0 1 -.581 1.812z"/><path d="m37.63 71.37a34.013 34.013 0 0 1 -14.822-3.358 1 1 0 0 1 .865-1.8 32.342 32.342 0 0 0 20.443 2.5.9.9 0 0 1 .114-.017 28.3 28.3 0 0 0 3.064-.8 32.415 32.415 0 0 0 21.689-38.98 7.461 7.461 0 0 1 -10.5-5.855 7.513 7.513 0 0 1 -6.37-5.956 7.453 7.453 0 0 1 -5.249-11.129 31.913 31.913 0 0 0 -9.234-1.345 32.378 32.378 0 0 0 -21.254 7.954 32.871 32.871 0 0 0 -4.491 4.794.862.862 0 0 1 -.058.086 32.14 32.14 0 0 0 -6.548 18.323c-.009.4-.019.8-.019 1.213a32.173 32.173 0 0 0 6.45 19.39 1 1 0 1 1 -1.6 1.2 34.176 34.176 0 0 1 -6.85-20.59c0-.429.01-.847.02-1.275a34.141 34.141 0 0 1 6.894-19.391c.018-.03.038-.06.059-.089a34.851 34.851 0 0 1 4.83-5.168 34.368 34.368 0 0 1 22.567-8.447 33.755 33.755 0 0 1 11.181 1.876 1 1 0 0 1 .415 1.611 5.449 5.449 0 0 0 3.811 9.074 1 1 0 0 1 .95.918 5.481 5.481 0 0 0 5.433 5.011 1 1 0 0 1 1 1 5.458 5.458 0 0 0 8.6 4.473 1 1 0 0 1 1.534.528 34.4 34.4 0 0 1 -22.654 42.684 30.326 30.326 0 0 1 -3.354.866c-.034.007-.067.012-.1.016a33.88 33.88 0 0 1 -6.816.683z"/><path d="m15.3 21.48a5.3 5.3 0 0 1 -5.257-4.472 1 1 0 0 1 1.975-.316 3.3 3.3 0 0 0 3.282 2.788 3.335 3.335 0 0 0 .325-6.654 1 1 0 0 1 .189-1.992 5.335 5.335 0 0 1 -.514 10.646z"/><path d="m7.05 43.75a5.007 5.007 0 0 1 -3.03-1.01 1 1 0 1 1 1.2-1.6 3.023 3.023 0 0 0 1.829.61 3.05 3.05 0 0 0 0-6.1 3.012 3.012 0 0 0 -2.082.827 1 1 0 0 1 -1.375-1.454 5.049 5.049 0 1 1 3.458 8.727z"/><path d="m44.331 70.692a1.057 1.057 0 0 1 -.216-.023 4.861 4.861 0 1 1 4.135-1.059 1 1 0 0 1 -1.3-1.52 2.867 2.867 0 1 0 -2.5.6.987.987 0 0 1 .589.271 1 1 0 0 1 .035 1.413 1.029 1.029 0 0 1 -.743.318z"/><path d="m37.242 22.617a4.864 4.864 0 1 1 4.864-4.864 4.87 4.87 0 0 1 -4.864 4.864zm0-7.728a2.864 2.864 0 1 0 2.864 2.864 2.867 2.867 0 0 0 -2.864-2.864z"/><path d="m27.578 37.2a4.964 4.964 0 1 1 4.964-4.963 4.969 4.969 0 0 1 -4.964 4.963zm0-7.927a2.964 2.964 0 1 0 2.964 2.964 2.967 2.967 0 0 0 -2.964-2.969z"/><path d="m50.416 35.731a4.963 4.963 0 1 1 4.964-4.963 4.969 4.969 0 0 1 -4.964 4.963zm0-7.926a2.963 2.963 0 1 0 2.964 2.963 2.966 2.966 0 0 0 -2.964-2.963z"/><path d="m57.8 49.672a4.963 4.963 0 1 1 4.963-4.963 4.969 4.969 0 0 1 -4.963 4.963zm0-7.926a2.963 2.963 0 1 0 2.963 2.963 2.966 2.966 0 0 0 -2.963-2.963z"/><path d="m23.615 60.261a4.964 4.964 0 1 1 4.963-4.961 4.97 4.97 0 0 1 -4.963 4.961zm0-7.927a2.964 2.964 0 1 0 2.963 2.966 2.967 2.967 0 0 0 -2.963-2.966z"/><path d="m38.728 52.813a6.207 6.207 0 1 1 6.207-6.207 6.213 6.213 0 0 1 -6.207 6.207zm0-10.414a4.207 4.207 0 1 0 4.207 4.207 4.212 4.212 0 0 0 -4.207-4.206z"/></svg>