<svg id="Icons" height="512" viewBox="0 0 74 74" width="512" xmlns="http://www.w3.org/2000/svg"><path d="m71 46.507h-2.364a1.819 1.819 0 0 1 -1.816-1.816v-3.875a1.818 1.818 0 0 1 1.816-1.816h2.364a1 1 0 0 1 1 1v5.506a1 1 0 0 1 -1 1.001zm-2.18-2h1.18v-3.507h-1.18z"/><path d="m49.75 51.55h-25.17a1 1 0 0 1 0-2h25.17a1 1 0 0 1 0 2z"/><path d="m69.05 51.55h-6.89a1 1 0 0 1 0-2h6.89a.951.951 0 0 0 .95-.95v-22.6a7.874 7.874 0 0 0 -7.86-7.87h-14.19a1 1 0 0 1 0-2h14.19a9.876 9.876 0 0 1 9.86 9.87v22.6a2.953 2.953 0 0 1 -2.95 2.95z"/><path d="m32 18.13h-3.95a1 1 0 0 1 0-2h3.95a1 1 0 0 1 0 2z"/><path d="m11.96 51.55h-6.76a3.2 3.2 0 0 1 -3.2-3.19v-28.11a4.125 4.125 0 0 1 4.12-4.12h15.93a1 1 0 0 1 0 2h-15.93a2.122 2.122 0 0 0 -2.12 2.12v28.11a1.2 1.2 0 0 0 1.2 1.19h6.76a1 1 0 0 1 0 2z"/><path d="m41.95 18.13h-3.95a1 1 0 0 1 0-2h3.95a1 1 0 0 1 0 2z"/><path d="m63.409 35.063h-53.018a1.961 1.961 0 0 1 -1.959-1.963v-9.679a1.961 1.961 0 0 1 1.959-1.959h50.247a4.785 4.785 0 0 1 4.779 4.78v6.813a2.01 2.01 0 0 1 -2.008 2.008zm-52.977-11.6v9.637l52.977-.041.008-6.821a2.783 2.783 0 0 0 -2.779-2.78z"/><path d="m53.035 35.063a1 1 0 0 1 -1-1v-11.6a1 1 0 0 1 2 0v11.6a1 1 0 0 1 -1 1z"/><path d="m42.38 35.063a1 1 0 0 1 -1-1v-11.6a1 1 0 1 1 2 0v11.6a1 1 0 0 1 -1 1z"/><path d="m31.724 35.063a1 1 0 0 1 -1-1v-11.6a1 1 0 1 1 2 0v11.6a1 1 0 0 1 -1 1z"/><path d="m21.068 35.063a1 1 0 0 1 -1-1v-11.6a1 1 0 0 1 2 0v11.6a1 1 0 0 1 -1 1z"/><path d="m5.646 46.507h-2.64a1 1 0 0 1 -1-1v-6.118a1 1 0 0 1 1-1h2.64a1.92 1.92 0 0 1 1.917 1.918v4.282a1.92 1.92 0 0 1 -1.917 1.918zm-1.64-2h1.557v-4.118h-1.557z"/><path d="m18.27 57.868a7.314 7.314 0 1 1 7.313-7.314 7.322 7.322 0 0 1 -7.313 7.314zm0-12.628a5.314 5.314 0 1 0 5.313 5.314 5.32 5.32 0 0 0 -5.313-5.314z"/><path d="m18.27 54.251a3.7 3.7 0 1 1 3.7-3.7 3.7 3.7 0 0 1 -3.7 3.7zm0-5.394a1.7 1.7 0 1 0 1.7 1.7 1.7 1.7 0 0 0 -1.7-1.7z"/><path d="m55.956 57.76a7.206 7.206 0 1 1 7.2-7.206 7.214 7.214 0 0 1 -7.2 7.206zm0-12.411a5.206 5.206 0 1 0 5.2 5.205 5.211 5.211 0 0 0 -5.2-5.205z"/><path d="m55.956 54.205a3.651 3.651 0 1 1 3.65-3.651 3.655 3.655 0 0 1 -3.65 3.651zm0-5.3a1.651 1.651 0 1 0 1.65 1.65 1.652 1.652 0 0 0 -1.65-1.655z"/></svg>