<?xml version="1.0" encoding="UTF-8"?>
<svg xmlns="http://www.w3.org/2000/svg" id="Icons" viewBox="0 0 74 74" width="512" height="512"><path d="M68,72H6a4,4,0,0,1-4-4V59.95a1,1,0,0,1,2,0V68a2,2,0,0,0,2,2H68a2,2,0,0,0,2-2V6a2,2,0,0,0-2-2H6A2,2,0,0,0,4,6V34.05a1,1,0,0,1-2,0V6A4,4,0,0,1,6,2H68a4,4,0,0,1,4,4V68A4,4,0,0,1,68,72Z"/><path d="M3,54.95a1,1,0,0,1-1-1V50a1,1,0,0,1,2,0v3.95A1,1,0,0,1,3,54.95Z"/><path d="M3,45a1,1,0,0,1-1-1V40.05a1,1,0,0,1,2,0V44A1,1,0,0,1,3,45Z"/><path d="M62,65H12a3,3,0,0,1-3-3V12a3,3,0,0,1,3-3H62a3,3,0,0,1,3,3V62A3,3,0,0,1,62,65ZM12,11a1,1,0,0,0-1,1V62a1,1,0,0,0,1,1H62a1,1,0,0,0,1-1V12a1,1,0,0,0-1-1Z"/><path d="M46.826,51.5a4.162,4.162,0,0,1-2.952-1.221L36.5,42.9l-7.374,7.374a4.174,4.174,0,1,1-5.9-5.9L30.6,37l-7.374-7.374a4.174,4.174,0,0,1,5.9-5.9L36.5,31.1l7.374-7.374a4.174,4.174,0,1,1,5.9,5.9L42.4,37l7.374,7.374A4.173,4.173,0,0,1,46.826,51.5ZM36.5,40.489a1,1,0,0,1,.707.293l8.081,8.081a2.174,2.174,0,1,0,3.075-3.075l-8.081-8.081a1,1,0,0,1,0-1.414l8.081-8.081a2.174,2.174,0,0,0-3.075-3.075l-8.081,8.081a1,1,0,0,1-1.414,0l-8.081-8.081a2.174,2.174,0,0,0-3.075,3.075l8.081,8.081a1,1,0,0,1,0,1.414l-8.081,8.081a2.174,2.174,0,0,0,3.075,3.075l8.081-8.081A1,1,0,0,1,36.5,40.489Z"/></svg>
