<svg id="Icons" height="512" viewBox="0 0 74 74" width="512" xmlns="http://www.w3.org/2000/svg"><path d="m71 50.95a1 1 0 0 1 -1-1v-3.95a1 1 0 0 1 2 0v3.95a1 1 0 0 1 -1 1z"/><path d="m68 72h-62a4 4 0 0 1 -4-4v-62a4 4 0 0 1 4-4h62a4 4 0 0 1 4 4v24.05a1 1 0 0 1 -2 0v-24.05a2 2 0 0 0 -2-2h-62a2 2 0 0 0 -2 2v62a2 2 0 0 0 2 2h62a2 2 0 0 0 2-2v-12.05a1 1 0 0 1 2 0v12.05a4 4 0 0 1 -4 4z"/><path d="m71 41a1 1 0 0 1 -1-1v-3.95a1 1 0 0 1 2 0v3.95a1 1 0 0 1 -1 1z"/><path d="m62 65h-50a3 3 0 0 1 -3-3v-50a3 3 0 0 1 3-3h50a3 3 0 0 1 3 3v50a3 3 0 0 1 -3 3zm-50-54a1 1 0 0 0 -1 1v50a1 1 0 0 0 1 1h50a1 1 0 0 0 1-1v-50a1 1 0 0 0 -1-1z"/><path d="m36.5 53.875a3.839 3.839 0 0 1 -3.835-3.835v-9.2h-9.2a3.835 3.835 0 0 1 0-7.67h9.2v-9.2a3.835 3.835 0 0 1 7.67 0v9.2h9.2a3.835 3.835 0 0 1 0 7.67h-9.2v9.2a3.839 3.839 0 0 1 -3.835 3.835zm-13.04-18.71a1.835 1.835 0 0 0 0 3.67h10.2a1 1 0 0 1 1 1v10.2a1.835 1.835 0 0 0 3.67 0v-10.2a1 1 0 0 1 1-1h10.2a1.835 1.835 0 0 0 0-3.67h-10.2a1 1 0 0 1 -1-1v-10.205a1.835 1.835 0 0 0 -3.67 0v10.2a1 1 0 0 1 -1 1z"/></svg>