<svg id="Icons" height="512" viewBox="0 0 74 74" width="512" xmlns="http://www.w3.org/2000/svg"><path d="m13.61 49a1 1 0 0 1 -1-1v-3.95a1 1 0 0 1 2 0v3.95a1 1 0 0 1 -1 1z"/><path d="m56.04 72h-38.08a5.356 5.356 0 0 1 -5.35-5.35v-2.7a1 1 0 0 1 2 0v2.7a3.354 3.354 0 0 0 3.35 3.35h38.08a3.354 3.354 0 0 0 3.35-3.35v-42.52h-44.78v13.92a1 1 0 0 1 -2 0v-14.92a1 1 0 0 1 1-1h46.78a1 1 0 0 1 1 1v43.52a5.356 5.356 0 0 1 -5.35 5.35z"/><path d="m13.61 58.95a1 1 0 0 1 -1-1v-3.95a1 1 0 0 1 2 0v3.95a1 1 0 0 1 -1 1z"/><path d="m56.04 24.128h-9.52a1 1 0 0 1 -1-1v-9.792a1 1 0 0 1 1-1h9.52a1 1 0 0 1 1 1v9.792a1 1 0 0 1 -1 1zm-8.52-2h7.52v-7.792h-7.52z"/><path d="m56.04 14.336h-9.52a1 1 0 0 1 -.908-1.419l4.76-10.335a1 1 0 0 1 1.816 0l4.76 10.335a1 1 0 0 1 -.908 1.419zm-7.958-2h6.4l-3.2-6.945z"/><path d="m37 24.128a1 1 0 0 1 -1-1v-9.792a1 1 0 1 1 2 0v9.792a1 1 0 0 1 -1 1z"/><path d="m46.52 14.336h-9.52a1 1 0 0 1 -.908-1.419l4.76-10.335a1 1 0 0 1 1.816 0l4.76 10.335a1 1 0 0 1 -.908 1.419zm-7.958-2h6.4l-3.2-6.945z"/><path d="m37 14.336h-9.52a1 1 0 0 1 -.908-1.419l4.76-10.335a1 1 0 0 1 .908-.582 1 1 0 0 1 .908.582l4.76 10.335a1 1 0 0 1 -.908 1.419zm-7.958-2h6.4l-3.2-6.945z"/><path d="m27.48 24.128h-9.52a1 1 0 0 1 -1-1v-9.792a1 1 0 0 1 1-1h9.52a1 1 0 0 1 1 1v9.792a1 1 0 0 1 -1 1zm-8.52-2h7.52v-7.792h-7.52z"/><path d="m27.48 14.336h-9.52a1 1 0 0 1 -.908-1.419l4.76-10.335a1 1 0 0 1 .908-.582 1 1 0 0 1 .908.582l4.76 10.335a1 1 0 0 1 -.908 1.419zm-7.959-2h6.4l-3.2-6.945z"/><path d="m60.392 32.832h-46.784a1 1 0 1 1 0-2h46.784a1 1 0 0 1 0 2z"/><path d="m37 58.944c-7.359 0-13.124-3.546-13.124-8.072s5.765-8.072 13.124-8.072 13.124 3.546 13.124 8.072-5.765 8.072-13.124 8.072zm0-14.144c-6.03 0-11.124 2.781-11.124 6.072s5.094 6.072 11.124 6.072 11.124-2.781 11.124-6.072-5.094-6.072-11.124-6.072z"/></svg>