<svg id="Icons" height="512" viewBox="0 0 74 74" width="512" xmlns="http://www.w3.org/2000/svg"><path d="m14 61.41a1 1 0 0 1 -1-1v-3.95a1 1 0 0 1 2 0v3.95a1 1 0 0 1 -1 1z"/><path d="m14 51.46a1 1 0 0 1 -1-1v-3.95a1 1 0 0 1 2 0v3.95a1 1 0 0 1 -1 1z"/><path d="m58 72h-42a3 3 0 0 1 -3-3v-2.59a1 1 0 0 1 2 0v2.59a1 1 0 0 0 1 1h42a1 1 0 0 0 1-1v-64a1 1 0 0 0 -1-1h-42a1 1 0 0 0 -1 1v35.51a1 1 0 0 1 -2 0v-35.51a3 3 0 0 1 3-3h42a3 3 0 0 1 3 3v64a3 3 0 0 1 -3 3z"/><path d="m51 12h-28a1 1 0 0 1 -1-1v-8a1 1 0 0 1 1-1h28a1 1 0 0 1 1 1v8a1 1 0 0 1 -1 1zm-27-2h26v-6h-26z"/><path d="m37 19a8.009 8.009 0 0 1 -8-8 1 1 0 0 1 2 0 6 6 0 0 0 12 0 1 1 0 0 1 2 0 8.009 8.009 0 0 1 -8 8z"/><path d="m51 72h-28a1 1 0 0 1 -1-1v-8a1 1 0 0 1 1-1h28a1 1 0 0 1 1 1v8a1 1 0 0 1 -1 1zm-27-2h26v-6h-26z"/><path d="m44 64a1 1 0 0 1 -1-1 6 6 0 0 0 -12 0 1 1 0 0 1 -2 0 8 8 0 0 1 16 0 1 1 0 0 1 -1 1z"/><path d="m60 38h-46a1 1 0 0 1 0-2h46a1 1 0 0 1 0 2z"/><path d="m37 47.5a10.5 10.5 0 1 1 10.5-10.5 10.512 10.512 0 0 1 -10.5 10.5zm0-19a8.5 8.5 0 1 0 8.5 8.5 8.51 8.51 0 0 0 -8.5-8.5z"/></svg>