<svg id="Icons" height="512" viewBox="0 0 74 74" width="512" xmlns="http://www.w3.org/2000/svg"><path d="m24.021 63.754h-7.3a1 1 0 0 1 -.866-1.5c.025-.044 2.373-4.156 2.023-7.257-2.219-.819-9.513-4.189-7.637-12.589a1 1 0 1 1 1.951.435c-1.782 7.983 6.481 10.336 6.833 10.432a1 1 0 0 1 .711.74c.615 2.664-.549 5.887-1.391 7.739h4.943c2.382-6.377 13.359-11.021 13.844-11.223a1 1 0 0 1 .77 1.846c-.114.047-11.411 4.828-12.915 10.628a1 1 0 0 1 -.966.749z"/><path d="m11.765 49.715a1.046 1.046 0 0 1 -.124-.008c-.1-.013-10.354-1.429-9.6-13.887a11.715 11.715 0 0 1 4.023-8.433c2.344-1.914 6.463-3.573 12.771-.616a1 1 0 0 1 -.85 1.81c-4.308-2.02-7.9-1.9-10.655.355a9.718 9.718 0 0 0 -3.293 7.005c-.637 10.547 7.506 11.736 7.854 11.782a1 1 0 0 1 -.126 1.992z"/><path d="m7.619 28.5h-.06a1 1 0 0 1 -.939-1.058c.009-.142 1.071-14.412 19.68-14.656a1 1 0 1 1 .025 2c-16.77.22-17.679 12.259-17.709 12.772a1 1 0 0 1 -.997.942z"/><path d="m23.47 18.55a.985.985 0 0 1 -.348-.063 1 1 0 0 1 -.59-1.28 11.311 11.311 0 0 1 6.089-5.978c4.17-1.737 9.429-1.184 15.629 1.647a1 1 0 1 1 -.83 1.819c-5.653-2.58-10.363-3.13-13.992-1.635a9.461 9.461 0 0 0 -5.021 4.84 1 1 0 0 1 -.937.65z"/><path d="m60.04 29.068a.989.989 0 0 1 -.533-.154 1 1 0 0 1 -.311-1.38 8.094 8.094 0 0 0 1.448-6.2 7.3 7.3 0 0 0 -3-4.176c-10.314-7.096-17.387-.224-17.457-.158a1 1 0 0 1 -1.415-1.414c.082-.082 8.337-8.108 19.952-.117a9.306 9.306 0 0 1 3.866 5.4c.574 2.437 0 5.038-1.7 7.733a1 1 0 0 1 -.85.466z"/><path d="m70.731 38.97a1.04 1.04 0 0 1 -.174-.015 1 1 0 0 1 -.812-1.158 14.98 14.98 0 0 0 .218-3.693 1 1 0 0 1 .923-1.071.985.985 0 0 1 1.071.923 16.972 16.972 0 0 1 -.241 4.188 1 1 0 0 1 -.985.826z"/><path d="m56.066 48.579a29.861 29.861 0 0 1 -6.276-.7 1 1 0 1 1 .42-1.955c7.648 1.641 12.656-.1 15.507-1.854a8.172 8.172 0 0 0 1.144-.85 1 1 0 0 1 1.317 1.5 10.229 10.229 0 0 1 -1.418 1.051 20.119 20.119 0 0 1 -10.694 2.808z"/><path d="m69.141 29.03a1 1 0 0 1 -.863-.491 15.247 15.247 0 0 0 -6.836-5.9 1 1 0 0 1 .713-1.869 17.037 17.037 0 0 1 7.845 6.751 1 1 0 0 1 -.86 1.509z"/><path d="m23.426 49.871a5.645 5.645 0 0 1 -.979-.085c-3.6-.631-4.638-4.456-4.684-6.391a1 1 0 0 1 .976-1.023.984.984 0 0 1 1.024.973c0 .163.149 3.967 3.03 4.471a4.219 4.219 0 0 0 3.482-1.066 3.246 3.246 0 0 0 1.157-3.2 1 1 0 0 1 1.968-.36 5.232 5.232 0 0 1 -1.79 5.051 6.331 6.331 0 0 1 -4.184 1.63z"/><path d="m39.386 52.62c-6.923 0-9.613-4.86-9.735-5.089l-4.175-7.995a6.691 6.691 0 0 0 -4.747-2.715 7.658 7.658 0 0 0 -5.1 2.151 1 1 0 0 1 -1.428-1.4 9.714 9.714 0 0 1 6.592-2.747 8.629 8.629 0 0 1 6.286 3.513 1.057 1.057 0 0 1 .118.178l4.223 8.084c.1.188 2.775 4.9 9.971 3.877.8-.233 10.339-3.145 10.746-9.987.047-.362.87-6.971-6.5-10.082a6.276 6.276 0 0 0 -3.8-.4c-1.857.429-2.59 1.492-2.3 3.347a1 1 0 1 1 -1.976.3 4.584 4.584 0 0 1 3.832-5.6 8.279 8.279 0 0 1 5.029.508c8.827 3.725 7.726 12.044 7.713 12.128-.5 8.462-11.785 11.6-12.266 11.729a.906.906 0 0 1 -.115.025 16.428 16.428 0 0 1 -2.368.175z"/><path d="m40.854 30.259a1 1 0 0 1 -.35-.063 7.843 7.843 0 0 1 -4.252-4.161 1 1 0 0 1 1.865-.721 5.809 5.809 0 0 0 3.083 3.008 1 1 0 0 1 -.349 1.937z"/><path d="m26.581 27.389a7.654 7.654 0 0 1 -6.322-3.114 1 1 0 0 1 1.6-1.2 6.11 6.11 0 0 0 6.306 2.138c5.495-2.415 4.556-7.247 4.513-7.452a1 1 0 1 1 1.957-.409 8.915 8.915 0 0 1 -5.74 9.725.971.971 0 0 1 -.114.041 8.377 8.377 0 0 1 -2.2.271z"/><path d="m28.5 33.032a.978.978 0 0 1 -.308-.05 3.754 3.754 0 0 1 -2.354-2.024c-.943-2.085.129-4.691.254-4.982a1 1 0 0 1 1.837.791 5 5 0 0 0 -.267 3.371 1.741 1.741 0 0 0 1.147.942 1 1 0 0 1 -.309 1.952z"/><path d="m61.537 37.239a5.026 5.026 0 0 1 -1.013-.1c-3.589-.736-5.417-5.209-5.493-5.4a1 1 0 0 1 1.857-.745c.014.037 1.509 3.671 4.044 4.186 1.339.272 2.837-.4 4.444-2.009a1 1 0 0 1 1.414 1.415c-1.766 1.763-3.528 2.653-5.253 2.653z"/><path d="m52.82 26.675a1 1 0 0 1 -.992-.881c-.452-3.778-2.96-4.157-2.985-4.161a.974.974 0 0 1 -.3-.087c-3.315-1.57-5.9 1.687-5.924 1.72a1 1 0 0 1 -1.58-1.225c1.217-1.568 4.486-4.052 8.24-2.358.8.171 3.964 1.145 4.53 5.873a1.007 1.007 0 0 1 -.994 1.119z"/><path d="m39.233 44.121c-.12 0-.239 0-.359-.01a6.436 6.436 0 0 1 -4.509-2.136 6.549 6.549 0 0 1 -1.613-4.634 1 1 0 0 1 1.991.181 4.6 4.6 0 0 0 1.116 3.124 4.458 4.458 0 0 0 3.122 1.468 4.552 4.552 0 0 0 3.3-1.141 6.55 6.55 0 0 0 1.811-3 1 1 0 0 1 1.912.588 8.517 8.517 0 0 1 -2.379 3.89 6.577 6.577 0 0 1 -4.392 1.67z"/></svg>