<svg id="Icons" height="512" viewBox="0 0 74 74" width="512" xmlns="http://www.w3.org/2000/svg"><path d="m61.956 65.486h-43.4a1 1 0 0 1 -1-1v-61.486a1 1 0 0 1 1-1h29.837a1 1 0 0 1 .707.293l13.563 13.563a1 1 0 0 1 .293.707v47.923a1 1 0 0 1 -1 1zm-42.4-2h41.4v-46.509l-12.977-12.977h-28.425z"/><path d="m12.04 34.55a1 1 0 0 1 -1-1v-25.12a1 1 0 0 1 1-1h6.51a1 1 0 0 1 0 2h-5.51v24.12a1 1 0 0 1 -1 1z"/><path d="m12.04 54.45a1 1 0 0 1 -1-1v-3.95a1 1 0 0 1 2 0v3.95a1 1 0 0 1 -1 1z"/><path d="m56.53 72h-44.49a1 1 0 0 1 -1-1v-11.55a1 1 0 0 1 2 0v10.55h42.49v-5.51a1 1 0 0 1 2 0v6.51a1 1 0 0 1 -1 1z"/><path d="m12.04 44.5a1 1 0 0 1 -1-1v-3.95a1 1 0 0 1 2 0v3.95a1 1 0 0 1 -1 1z"/><path d="m61.956 17.563h-13.563a1 1 0 0 1 -1-1v-13.563a1 1 0 0 1 2 0v12.563h12.563a1 1 0 1 1 0 2z"/><path d="m53.723 26h-26.935a1 1 0 1 1 0-2h26.935a1 1 0 0 1 0 2z"/><path d="m53.723 35.2h-26.935a1 1 0 1 1 0-2h26.935a1 1 0 0 1 0 2z"/><path d="m53.723 44.4h-26.935a1 1 0 1 1 0-2h26.935a1 1 0 0 1 0 2z"/><path d="m53.723 53.6h-26.935a1 1 0 1 1 0-2h26.935a1 1 0 0 1 0 2z"/></svg>