<svg id="Icons" height="512" viewBox="0 0 74 74" width="512" xmlns="http://www.w3.org/2000/svg"><path d="m11.28 49a1 1 0 0 1 -1-1v-3.95a1 1 0 0 1 2 0v3.95a1 1 0 0 1 -1 1z"/><path d="m62.72 72h-51.44a1 1 0 0 1 -1-1v-7.05a1 1 0 0 1 2 0v6.05h49.44v-50.44h-49.44v18.49a1 1 0 0 1 -2 0v-19.49a1 1 0 0 1 1-1h51.44a1 1 0 0 1 1 1v52.44a1 1 0 0 1 -1 1z"/><path d="m11.28 58.95a1 1 0 0 1 -1-1v-3.95a1 1 0 0 1 2 0v3.95a1 1 0 0 1 -1 1z"/><path d="m62.721 19.56h-51.442a1 1 0 0 1 -1-1v-11.689a1 1 0 0 1 1-1h51.442a1 1 0 0 1 1 1v11.689a1 1 0 0 1 -1 1zm-50.442-2h49.442v-9.689h-49.442z"/><path d="m53.005 11.743a4.872 4.872 0 1 1 4.871-4.872 1 1 0 1 1 -2 0 2.871 2.871 0 1 0 -2.871 2.872 1 1 0 0 1 0 2z"/><path d="m42.335 11.743a4.872 4.872 0 1 1 4.871-4.872 1 1 0 1 1 -2 0 2.871 2.871 0 1 0 -2.871 2.872 1 1 0 0 1 0 2z"/><path d="m31.665 11.743a4.872 4.872 0 1 1 4.871-4.872 1 1 0 1 1 -2 0 2.871 2.871 0 1 0 -2.871 2.872 1 1 0 0 1 0 2z"/><path d="m21 11.743a4.872 4.872 0 1 1 4.871-4.872 1 1 0 1 1 -2 0 2.871 2.871 0 1 0 -2.871 2.872 1 1 0 0 1 0 2z"/><path d="m54.5 28.78h-35a1 1 0 0 1 0-2h35a1 1 0 0 1 0 2z"/><path d="m54.5 37.28h-35a1 1 0 0 1 0-2h35a1 1 0 0 1 0 2z"/><path d="m54.5 45.78h-35a1 1 0 0 1 0-2h35a1 1 0 0 1 0 2z"/><path d="m54.5 54.28h-35a1 1 0 0 1 0-2h35a1 1 0 0 1 0 2z"/><path d="m54.5 62.78h-35a1 1 0 0 1 0-2h35a1 1 0 0 1 0 2z"/></svg>