<svg id="Icons" height="512" viewBox="0 0 74 74" width="512" xmlns="http://www.w3.org/2000/svg"><path d="m68.59 50.85h-63.18a3.414 3.414 0 0 1 -3.41-3.41v-4.05a1 1 0 0 1 2 0v4.05a1.412 1.412 0 0 0 1.41 1.41h63.18a1.412 1.412 0 0 0 1.41-1.41v-41.99a1.412 1.412 0 0 0 -1.41-1.41h-63.18a1.412 1.412 0 0 0 -1.41 1.41v12.04a1 1 0 0 1 -2 0v-12.04a3.414 3.414 0 0 1 3.41-3.41h63.18a3.414 3.414 0 0 1 3.41 3.41v41.99a3.414 3.414 0 0 1 -3.41 3.41z"/><path d="m3 38.39a1 1 0 0 1 -1-1v-3.95a1 1 0 0 1 2 0v3.95a1 1 0 0 1 -1 1z"/><path d="m3 28.44a1 1 0 0 1 -1-1v-3.95a1 1 0 0 1 2 0v3.95a1 1 0 0 1 -1 1z"/><path d="m63.724 45.053h-53.448a1.931 1.931 0 0 1 -1.929-1.929v-33.363a1.931 1.931 0 0 1 1.929-1.929h53.448a1.931 1.931 0 0 1 1.929 1.929v33.363a1.931 1.931 0 0 1 -1.929 1.929zm-53.377-2h53.377l-.071-33.292-53.377.071z"/><path d="m22.624 33.438h-5.894a1 1 0 0 1 -1-1v-11.874a1 1 0 0 1 1-1h5.894a1 1 0 1 1 0 2h-4.894v9.874h4.894a1 1 0 1 1 0 2z"/><path d="m22.624 27.442h-5.894a1 1 0 1 1 0-2h5.894a1 1 0 1 1 0 2z"/><path d="m47.118 31.876a1 1 0 0 1 -1-1v-5.765a2.015 2.015 0 1 0 -4.029 0v5.765a1 1 0 1 1 -2 0v-5.765a4.015 4.015 0 1 1 8.029 0v5.765a1 1 0 0 1 -1 1z"/><path d="m41.089 31.876a1 1 0 0 1 -1-1v-5.765a2.015 2.015 0 1 0 -4.029 0v5.765a1 1 0 1 1 -2 0v-5.765a4.015 4.015 0 1 1 8.029 0v5.765a1 1 0 0 1 -1 1z"/><path d="m35.06 31.876a1 1 0 0 1 -1-1v-5.765a2.017 2.017 0 0 0 -2.015-2.011 1 1 0 0 1 0-2 4.019 4.019 0 0 1 4.015 4.015v5.765a1 1 0 0 1 -1 .996z"/><path d="m54.854 31.73a5.069 5.069 0 0 1 -4.763-5.317 5.069 5.069 0 0 1 4.763-5.313 4.7 4.7 0 0 1 4.061 2.548 1 1 0 1 1 -1.756.956 2.672 2.672 0 0 0 -2.3-1.5 3.081 3.081 0 0 0 -2.763 3.317 3.081 3.081 0 0 0 2.763 3.317 2.67 2.67 0 0 0 2.3-1.5 1 1 0 1 1 1.756.956 4.693 4.693 0 0 1 -4.061 2.536z"/><path d="m55 71.962a1 1 0 0 1 -.993-.89l-.843-7.648h-32.33l-.843 7.648a.987.987 0 0 1 -1.092.886l-4.814-.472a1 1 0 0 1 -.9-1.1l2.2-20.644a1 1 0 0 1 1.988.212l-2.089 19.64 2.827.277.833-7.557a1 1 0 0 1 .994-.89h34.124a1 1 0 0 1 .994.89l.833 7.557 2.827-.277-2.091-19.641a1 1 0 0 1 1.988-.212l2.2 20.644a1 1 0 0 1 -.9 1.1l-4.814.472c-.032.004-.065.005-.099.005z"/><path d="m53.659 58.321h-33.3a1 1 0 0 1 -.994-1.12l.905-7.474a1 1 0 0 1 1.986.24l-.77 6.354h31.037l-.81-6.347a1 1 0 1 1 1.984-.253l.954 7.473a1 1 0 0 1 -.992 1.127z"/><path d="m30.773 26.553h-4.3a1 1 0 0 1 0-2h4.3a1 1 0 0 1 0 2z"/><path d="m30.773 30.04h-4.3a1 1 0 1 1 0-2h4.3a1 1 0 1 1 0 2z"/></svg>