<svg id="Icons" height="512" viewBox="0 0 74 74" width="512" xmlns="http://www.w3.org/2000/svg"><path d="m3.839 45.5a1 1 0 0 1 -.973-.773 33.238 33.238 0 0 1 -.67-4.074 1 1 0 0 1 1.989-.207 31.352 31.352 0 0 0 .628 3.827 1 1 0 0 1 -.747 1.2.983.983 0 0 1 -.227.027z"/><path d="m37.041 72a35.008 35.008 0 0 1 -32.169-21.1 1 1 0 0 1 1.836-.8 33.012 33.012 0 0 0 33.371 19.764 33.427 33.427 0 0 0 29.912-31.553v-.3a8.566 8.566 0 0 0 -2.837-6.692 9.257 9.257 0 0 0 -7.365-2.375l-5.615.64a8.542 8.542 0 0 1 -9.542-8.82l.28-7.262a9.187 9.187 0 0 0 -2.689-6.869 8.92 8.92 0 0 0 -6.776-2.623c-1.193.052-2.309.153-3.415.311a32.861 32.861 0 0 0 -25.78 20.643 1 1 0 1 1 -1.863-.728 34.868 34.868 0 0 1 27.358-21.896c1.172-.167 2.353-.275 3.61-.329a11.031 11.031 0 0 1 8.276 3.2 11.187 11.187 0 0 1 3.276 8.366l-.28 7.257a6.543 6.543 0 0 0 7.314 6.766l5.614-.64a11.266 11.266 0 0 1 8.949 2.887 10.656 10.656 0 0 1 3.483 8.2v.307a35.025 35.025 0 0 1 -31.729 33.502c-1.078.098-2.153.144-3.219.144z"/><path d="m3.081 35.55a.744.744 0 0 1 -.081 0 1 1 0 0 1 -.917-1.076c.041-.513.083-1.015.144-1.528.083-.763.2-1.568.379-2.523a1 1 0 0 1 1.967.362c-.167.905-.281 1.663-.359 2.386-.06.5-.1.976-.137 1.462a1 1 0 0 1 -.996.917z"/><path d="m32.187 23.648a6.018 6.018 0 1 1 6.013-6.017 6.024 6.024 0 0 1 -6.013 6.017zm0-10.035a4.018 4.018 0 1 0 4.013 4.018 4.023 4.023 0 0 0 -4.013-4.018z"/><path d="m17.716 33.981a6.018 6.018 0 1 1 6.017-6.018 6.025 6.025 0 0 1 -6.017 6.018zm0-10.035a4.018 4.018 0 1 0 4.017 4.017 4.022 4.022 0 0 0 -4.017-4.017z"/><path d="m16.682 51.587a6.018 6.018 0 1 1 6.018-6.018 6.025 6.025 0 0 1 -6.018 6.018zm0-10.036a4.018 4.018 0 1 0 4.018 4.018 4.023 4.023 0 0 0 -4.018-4.018z"/><path d="m29.908 63.373a6.018 6.018 0 1 1 6.018-6.018 6.024 6.024 0 0 1 -6.018 6.018zm0-10.036a4.018 4.018 0 1 0 4.018 4.018 4.022 4.022 0 0 0 -4.018-4.018z"/><path d="m47.3 60.3a6.018 6.018 0 1 1 6.017-6.018 6.025 6.025 0 0 1 -6.017 6.018zm0-10.035a4.018 4.018 0 1 0 4.017 4.017 4.022 4.022 0 0 0 -4.017-4.013z"/><path d="m56.012 44.911a6.018 6.018 0 1 1 6.017-6.017 6.024 6.024 0 0 1 -6.017 6.017zm0-10.035a4.018 4.018 0 1 0 4.017 4.018 4.023 4.023 0 0 0 -4.017-4.018z"/></svg>